<?xml version="1.0" encoding="UTF-8"?>
<svg xmlns="http://www.w3.org/2000/svg" id="_图层_1" data-name="图层 1" viewBox="0 0 205 155">
  <defs>
    <style>
      .cls-1 {
        fill: #e5e5e5;
      }
    </style>
  </defs>
  <g>
    <path class="cls-1" d="M75.79,127.66h-3.45l5.65-15.74h3.55l5.64,15.74h-3.51l-3.45-11.05-.48-1.81-.49,1.81-3.44,11.05Zm-.25-3.31l.43-2.34h7.16l.43,2.34h-8.02Z"></path>
    <path class="cls-1" d="M88.79,132.85v-16.88h2.99v1.43l.21,.25v8.74l-.03,.82,.03,1.89v3.76h-3.2Zm5.09-5.02c-.71,0-1.29-.08-1.74-.25-.46-.16-.75-.29-.88-.39l.73-2.04c.17,.17,.42,.29,.73,.36s.67,.11,1.07,.11c.52,0,.98-.15,1.38-.46,.4-.31,.72-.76,.95-1.35,.23-.59,.36-1.31,.36-2.17,0-1.25-.2-2.13-.61-2.65-.41-.52-.98-.78-1.71-.78-.46,0-.87,.08-1.25,.24s-.68,.33-.91,.5l-.39-1.63c.16-.17,.39-.38,.68-.62,.29-.24,.67-.45,1.14-.63,.47-.18,1.05-.27,1.75-.27,.83,0,1.59,.2,2.3,.6s1.27,1.01,1.7,1.84c.43,.82,.64,1.86,.64,3.12s-.25,2.43-.73,3.4c-.49,.96-1.18,1.71-2.07,2.25-.89,.54-1.93,.8-3.12,.8Z"></path>
    <path class="cls-1" d="M105.92,127.83c-.71,0-1.3-.12-1.77-.35-.47-.23-.81-.61-1.04-1.12s-.34-1.19-.34-2.03v-6.17h-1.42v-1.71c.52-.15,.93-.29,1.24-.42s.54-.36,.68-.69c.07-.16,.15-.35,.23-.57,.08-.22,.17-.45,.26-.7,.09-.25,.18-.51,.28-.77h1.93v2.67h3.14v2.19h-3.14v4.82c0,.74,.04,1.28,.12,1.62,.08,.34,.21,.56,.4,.65,.19,.09,.46,.14,.82,.14,.18,0,.39-.02,.63-.07,.24-.05,.46-.1,.68-.17,.22-.07,.38-.14,.5-.22l.42,1.8c-.19,.17-.47,.34-.85,.51-.38,.17-.81,.31-1.29,.42-.48,.11-.98,.17-1.48,.17Z"></path>
    <path class="cls-1" d="M116.41,127.83c-1.02,0-1.89-.17-2.6-.5-.71-.33-1.29-.79-1.73-1.37s-.75-1.25-.95-2-.29-1.55-.28-2.39c.02-1.25,.28-2.3,.78-3.15,.5-.85,1.18-1.5,2.05-1.94,.87-.44,1.85-.66,2.95-.66,1.37,0,2.47,.29,3.29,.86,.82,.57,1.41,1.34,1.76,2.28s.53,1.98,.5,3.09c-.01,1.25-.27,2.31-.77,3.17-.5,.86-1.18,1.51-2.04,1.95-.86,.44-1.85,.66-2.96,.66Zm.08-2.24c.83,0,1.44-.3,1.82-.93,.38-.63,.57-1.54,.57-2.74,0-.71-.08-1.35-.23-1.93s-.4-1.05-.74-1.4c-.34-.35-.79-.53-1.35-.54-.84,0-1.45,.3-1.83,.92-.38,.62-.57,1.51-.57,2.68,0,.71,.08,1.37,.23,1.97,.15,.6,.4,1.08,.74,1.43,.34,.36,.79,.54,1.36,.54Z"></path>
    <path class="cls-1" d="M123.95,126.92l.36-2.26c.11,.09,.34,.21,.68,.36,.34,.15,.75,.28,1.23,.4,.48,.12,.97,.18,1.47,.18,.64,0,1.11-.08,1.41-.26s.45-.45,.45-.8c0-.25-.1-.46-.3-.64-.2-.18-.47-.35-.81-.51-.34-.16-.72-.32-1.14-.49-.76-.3-1.38-.63-1.87-.99-.49-.36-.86-.76-1.1-1.22-.24-.46-.36-1-.35-1.61,0-.73,.22-1.33,.64-1.82,.42-.48,.97-.85,1.67-1.09,.7-.24,1.47-.36,2.31-.36s1.59,.08,2.2,.24c.61,.16,1.02,.3,1.24,.44l-.35,2.3c-.13-.11-.34-.23-.63-.36s-.61-.23-.97-.31c-.36-.08-.73-.12-1.1-.12-.68,0-1.17,.08-1.49,.25-.31,.16-.47,.4-.47,.71,0,.4,.15,.69,.47,.89,.32,.19,.76,.41,1.33,.65,.84,.34,1.54,.68,2.12,1.02,.57,.34,1,.73,1.29,1.17,.29,.44,.44,.97,.44,1.6,0,1.16-.42,2.04-1.25,2.65-.83,.6-1.96,.9-3.37,.9-.59,0-1.17-.05-1.72-.14s-1.03-.21-1.45-.35c-.42-.14-.73-.28-.93-.42Z"></path>
  </g>
  <g>
    <path class="cls-1" d="M120.27,43.89h-5.73c-.66,0-1.3-.28-1.74-.78l-2.32-2.62c-.35-.39-.84-.62-1.36-.62s-1.01,.23-1.36,.62l-2,2.26c-.65,.73-1.59,1.16-2.57,1.16h-31.35c-.89,2.53-1.47,5.21-1.7,8.01h29.59c.53,0,1.01-.22,1.38-.59l2.76-2.88c.34-.36,.82-.57,1.31-.57h.11c.53,0,1.01,.23,1.36,.62l2.32,2.62c.45,.5,1.08,.78,1.74,.78h24.15c-.23-2.78-.81-5.48-1.7-8.02h-12.88Z"></path>
    <path class="cls-1" d="M88.05,68.77c.53,0,1.01-.22,1.38-.59l2.76-2.88c.35-.36,.82-.57,1.32-.57h.11c.53,0,1.03,.23,1.36,.61l2.32,2.62c.45,.5,1.08,.78,1.74,.78h32.74c1.23-2.54,2.12-5.25,2.66-8.1h-31.43c-.66,0-1.3-.28-1.74-.78l-2.32-2.59c-.35-.39-.84-.61-1.36-.61s-1.03,.23-1.36,.61l-2,2.26c-.65,.74-1.59,1.16-2.58,1.16h-21.05c.54,2.85,1.43,5.56,2.66,8.1h14.8Z"></path>
    <path class="cls-1" d="M111.26,35.13c.53,0,1.01-.22,1.38-.59l2.76-2.88c.34-.36,.82-.57,1.32-.57h.11c.53,0,1.01,.23,1.36,.62l2.32,2.63c.45,.5,1.08,.78,1.74,.78h6.23c-5.93-7.89-15.36-12.98-25.97-12.98s-20.06,5.09-25.98,12.98h34.74Z"></path>
    <path class="cls-1" d="M98.77,76.81h-8.51c-.66,0-1.3-.28-1.74-.78l-2.32-2.62c-.35-.39-.84-.61-1.36-.61s-1.03,.23-1.36,.61l-2,2.26c-.65,.74-1.59,1.16-2.58,1.16h-.14c5.93,6.35,14.37,10.33,23.76,10.33s17.81-3.98,23.76-10.33h-27.5Z"></path>
  </g>
</svg>
