<?xml version="1.0" encoding="UTF-8"?>
<svg xmlns="http://www.w3.org/2000/svg" id="_图层_1" data-name="图层 1" viewBox="0 0 205 155">
  <defs>
    <style>
      .cls-1 {
        fill: none;
      }

      .cls-2 {
        fill: #fff;
      }

      .cls-3 {
        fill: #e5e5e5;
      }

      .cls-4 {
        fill: #9dcced;
      }

      .cls-5 {
        fill: #213147;
      }

      .cls-6 {
        fill: #12aaff;
      }
    </style>
  </defs>
  <g id="Layer_1">
    <g id="_2405588477232" data-name=" 2405588477232">
      <rect class="cls-1" x="70" y="24.28" width="65" height="65"></rect>
      <g>
        <path class="cls-5" d="M75.88,44.04v25.48c0,1.64,.86,3.12,2.29,3.95l22.07,12.74c1.4,.81,3.15,.81,4.55,0l22.07-12.74c1.4-.81,2.29-2.31,2.29-3.95v-25.48c0-1.64-.86-3.12-2.29-3.95l-22.07-12.74c-1.4-.81-3.15-.81-4.55,0l-22.07,12.74c-1.4,.81-2.26,2.31-2.26,3.95h-.03Z"></path>
        <g>
          <path class="cls-6" d="M107.31,61.72l-3.15,8.63c-.08,.23-.08,.49,0,.75l5.41,14.85,6.27-3.61-7.51-20.62c-.18-.47-.83-.47-1.01,0Z"></path>
          <path class="cls-6" d="M113.63,47.22c-.18-.47-.83-.47-1.01,0l-3.15,8.63c-.08,.23-.08,.49,0,.75l8.87,24.31,6.27-3.61-10.97-30.06v-.03Z"></path>
        </g>
        <path class="cls-4" d="M102.5,28.31c.16,0,.31,.05,.44,.13l23.87,13.78c.29,.16,.44,.47,.44,.78v27.56c0,.31-.18,.62-.44,.78l-23.87,13.78c-.13,.08-.29,.13-.44,.13s-.31-.05-.44-.13l-23.87-13.78c-.29-.16-.44-.47-.44-.78v-27.59c0-.31,.18-.62,.44-.78l23.87-13.78c.13-.08,.29-.13,.44-.13h0v.03Zm0-4.03c-.86,0-1.69,.21-2.47,.65l-23.87,13.78c-1.53,.88-2.47,2.5-2.47,4.26v27.56c0,1.77,.94,3.38,2.47,4.26l23.87,13.78c.75,.44,1.61,.65,2.47,.65s1.69-.21,2.47-.65l23.87-13.78c1.53-.88,2.47-2.5,2.47-4.26v-27.56c0-1.77-.94-3.38-2.47-4.26l-23.89-13.78c-.75-.44-1.61-.65-2.47-.65h.03Z"></path>
        <polygon class="cls-5" points="86.69 80.94 88.9 74.91 93.32 78.57 89.19 82.37 86.69 80.94"></polygon>
        <g>
          <path class="cls-2" d="M100.47,41.03h-6.06c-.44,0-.86,.29-1.01,.7l-12.97,35.57,6.27,3.61,14.3-39.18c.13-.36-.13-.73-.49-.73l-.03,.03Z"></path>
          <path class="cls-2" d="M111.08,41.03h-6.06c-.44,0-.86,.29-1.01,.7l-14.82,40.61,6.27,3.61,16.12-44.23c.13-.36-.13-.73-.49-.73v.03Z"></path>
        </g>
      </g>
    </g>
  </g>
  <g>
    <path class="cls-3" d="M58.46,130.52h-3.45l5.65-15.74h3.55l5.64,15.74h-3.51l-3.45-11.05-.48-1.81-.49,1.81-3.44,11.05Zm-.25-3.31l.43-2.34h7.16l.43,2.34h-8.02Z"></path>
    <path class="cls-3" d="M71.29,130.52v-11.69h2.77l.18,1.83,.25,.56v9.3h-3.2Zm3.01-7.62l-.15-2.25c.13-.34,.36-.66,.69-.96,.34-.3,.73-.55,1.2-.75,.46-.19,.95-.29,1.46-.29,.21,0,.4,.01,.58,.03,.18,.02,.31,.06,.39,.11v3.12c-.1-.06-.25-.13-.45-.19-.2-.06-.51-.09-.92-.09-.5,0-.94,.07-1.3,.21-.36,.14-.67,.32-.92,.51-.25,.2-.44,.38-.58,.54Z"></path>
    <path class="cls-3" d="M80.61,113.48h3.17v4.45l-.09,2.37,.09,.06v8.39l-3.17,1.1v-16.38Zm4.9,17.23c-.53,0-1.07-.03-1.61-.09-.54-.06-1.05-.14-1.51-.24-.47-.09-.86-.19-1.17-.28-.31-.09-.52-.17-.61-.24l3.17-1.73c.14,.13,.36,.23,.67,.29,.31,.06,.69,.09,1.13,.09,.5,0,.96-.16,1.37-.47,.41-.31,.73-.77,.96-1.37s.36-1.33,.36-2.19c0-1.26-.2-2.15-.62-2.66-.42-.51-1-.77-1.72-.77-.46,0-.88,.08-1.27,.25-.38,.16-.68,.33-.89,.49l-.39-1.63c.16-.17,.39-.37,.68-.61,.29-.24,.67-.45,1.14-.63,.47-.18,1.06-.27,1.75-.27,.83,0,1.6,.2,2.29,.6,.7,.4,1.26,1.01,1.68,1.84,.42,.82,.64,1.86,.64,3.12s-.25,2.44-.75,3.41c-.5,.97-1.2,1.72-2.11,2.26-.91,.54-1.98,.81-3.2,.81Z"></path>
    <path class="cls-3" d="M95.63,117.14c-.52,0-.96-.16-1.31-.48-.36-.32-.54-.74-.54-1.26,0-.35,.1-.67,.29-.96,.19-.29,.44-.52,.76-.7,.31-.17,.65-.26,1-.26,.57,0,1.02,.16,1.35,.49,.33,.33,.49,.74,.49,1.25s-.2,.99-.6,1.36c-.4,.37-.88,.56-1.43,.56Zm-1.44,13.38v-11.69h3.2v11.69h-3.2Z"></path>
    <path class="cls-3" d="M104.27,130.68c-.71,0-1.3-.12-1.77-.35s-.81-.61-1.04-1.12c-.23-.51-.34-1.19-.34-2.03v-6.17h-1.42v-1.71c.52-.15,.93-.29,1.24-.42s.54-.36,.68-.69c.07-.16,.15-.35,.23-.57,.08-.22,.17-.45,.26-.7s.19-.51,.28-.77h1.93v2.67h3.14v2.19h-3.14v4.82c0,.74,.04,1.28,.12,1.62s.21,.56,.4,.65c.19,.09,.46,.14,.82,.14,.18,0,.39-.02,.63-.07,.24-.05,.47-.1,.68-.17,.22-.07,.38-.14,.5-.22l.42,1.8c-.19,.17-.47,.34-.85,.51-.38,.17-.81,.31-1.29,.42-.48,.11-.98,.17-1.48,.17Z"></path>
    <path class="cls-3" d="M109.92,130.52v-11.69h2.77l.18,1.83,.25,.56v9.3h-3.2Zm3.01-7.62l-.15-2.25c.13-.34,.36-.66,.69-.96,.34-.3,.74-.55,1.2-.75s.95-.29,1.46-.29c.21,0,.4,.01,.58,.03,.18,.02,.31,.06,.39,.11v3.12c-.1-.06-.25-.13-.45-.19-.2-.06-.51-.09-.92-.09-.5,0-.94,.07-1.3,.21-.36,.14-.67,.32-.92,.51-.25,.2-.44,.38-.58,.54Z"></path>
    <path class="cls-3" d="M122.8,130.68c-.81,0-1.47-.12-1.97-.36-.5-.24-.88-.59-1.14-1.03s-.43-.98-.52-1.59c-.09-.61-.14-1.28-.14-2.02v-6.87h3.19v6.91c0,.74,.06,1.29,.19,1.65,.13,.36,.32,.61,.58,.72s.6,.18,1.01,.18c.25,0,.51-.04,.78-.11,.27-.07,.51-.16,.74-.26,.22-.1,.4-.2,.51-.29v-8.81h3.2v11.87h-2.04c-.27,0-.48-.04-.63-.13-.15-.08-.23-.28-.23-.59v-.78l.06,.3c-.29,.22-.64,.43-1.04,.6-.41,.18-.84,.32-1.29,.43-.45,.1-.87,.16-1.27,.16Z"></path>
    <path class="cls-3" d="M132.52,130.52v-11.69h2.91l.05,1.25c.27-.21,.62-.42,1.03-.64,.42-.22,.87-.4,1.36-.55,.49-.15,.99-.23,1.5-.24,.81-.02,1.47,.11,1.98,.39,.52,.28,.9,.75,1.16,1.42,.25,.67,.38,1.57,.38,2.69v7.36h-3.19v-6.89c0-.6-.05-1.08-.15-1.43s-.27-.61-.52-.76c-.25-.15-.6-.22-1.06-.21-.31,0-.67,.07-1.1,.22-.43,.15-.82,.36-1.17,.65v8.42h-3.19Zm10.24-8.37l-.59-1.98c.22-.2,.54-.41,.96-.65,.42-.23,.9-.44,1.44-.61,.55-.17,1.12-.26,1.73-.26,.8,0,1.48,.13,2.03,.4,.55,.27,.96,.74,1.24,1.41,.28,.67,.42,1.57,.42,2.71v7.35h-3.21v-6.9c0-.6-.05-1.08-.14-1.43-.09-.35-.27-.61-.51-.76-.25-.15-.6-.22-1.07-.21-.4,0-.81,.1-1.23,.29-.42,.19-.78,.4-1.07,.64Z"></path>
  </g>
</svg>
