<?xml version="1.0" encoding="UTF-8"?>
<svg xmlns="http://www.w3.org/2000/svg" id="_图层_1" data-name="图层 1" viewBox="0 0 205 155">
  <defs>
    <style>
      .cls-1 {
        fill: #e5e5e5;
      }

      .cls-2 {
        fill: #e84142;
        fill-rule: evenodd;
      }
    </style>
  </defs>
  <g>
    <path class="cls-1" d="M52.87,130.48h-3.46l5.65-15.74h3.55l5.64,15.74h-3.51l-3.46-11.05-.48-1.81-.49,1.81-3.44,11.05Zm-.25-3.31l.43-2.34h7.16l.43,2.34h-8.02Z"></path>
    <path class="cls-1" d="M68,130.64l-4.49-11.87h3.43l1.82,5.7,1.13,4.2h-.66l1.04-4.2,1.75-5.7h3.38l-4.43,11.87h-2.97Z"></path>
    <path class="cls-1" d="M80.09,130.64c-.74,0-1.39-.15-1.95-.45-.56-.3-1-.72-1.31-1.26-.31-.54-.47-1.17-.47-1.88s.19-1.33,.58-1.84c.39-.51,.92-.91,1.58-1.2,.46-.19,.95-.34,1.5-.44,.54-.11,1.08-.18,1.63-.22,.54-.04,1.05-.06,1.52-.06l.54,.66-.54,1.03c-.25,0-.54,.02-.85,.05-.32,.04-.62,.09-.91,.15-.29,.07-.53,.14-.73,.23-.27,.13-.52,.29-.73,.5s-.32,.53-.32,.97c0,.57,.16,.99,.47,1.25,.31,.27,.72,.4,1.22,.4,.26,0,.52-.04,.77-.11,.26-.07,.48-.15,.68-.25,.2-.09,.33-.18,.4-.27l.56,.66-.39,.9c-.32,.28-.75,.54-1.3,.79-.55,.25-1.2,.37-1.95,.37Zm6.28-.17h-3.03v-1.74h-.17v-6.3c0-.59-.16-.99-.47-1.17-.32-.19-.77-.28-1.35-.28-.44,0-.9,.04-1.38,.12-.48,.08-.93,.18-1.36,.3s-.78,.26-1.07,.41l-.69-2.02c.24-.14,.61-.3,1.11-.49,.5-.19,1.08-.36,1.73-.5,.65-.14,1.31-.21,1.96-.21,1.08,0,1.97,.13,2.66,.38s1.21,.68,1.55,1.28c.34,.6,.51,1.43,.51,2.5v7.73Z"></path>
    <path class="cls-1" d="M89.5,130.48v-17.06h3.21v17.06h-3.21Z"></path>
    <path class="cls-1" d="M98.97,130.64c-.74,0-1.39-.15-1.95-.45-.56-.3-1-.72-1.31-1.26-.31-.54-.47-1.17-.47-1.88s.19-1.33,.58-1.84c.39-.51,.92-.91,1.58-1.2,.46-.19,.95-.34,1.5-.44,.54-.11,1.08-.18,1.63-.22,.54-.04,1.05-.06,1.52-.06l.54,.66-.54,1.03c-.25,0-.54,.02-.85,.05-.32,.04-.62,.09-.91,.15-.29,.07-.53,.14-.73,.23-.27,.13-.52,.29-.73,.5s-.32,.53-.32,.97c0,.57,.16,.99,.47,1.25,.32,.27,.72,.4,1.22,.4,.26,0,.52-.04,.77-.11,.25-.07,.48-.15,.68-.25,.2-.09,.33-.18,.4-.27l.56,.66-.39,.9c-.32,.28-.75,.54-1.3,.79s-1.2,.37-1.95,.37Zm6.28-.17h-3.03v-1.74h-.17v-6.3c0-.59-.16-.99-.47-1.17-.32-.19-.77-.28-1.35-.28-.44,0-.9,.04-1.38,.12-.48,.08-.93,.18-1.36,.3-.43,.13-.78,.26-1.07,.41l-.69-2.02c.24-.14,.61-.3,1.11-.49,.5-.19,1.08-.36,1.73-.5s1.31-.21,1.96-.21c1.08,0,1.96,.13,2.66,.38s1.21,.68,1.55,1.28c.34,.6,.51,1.43,.51,2.5v7.73Z"></path>
    <path class="cls-1" d="M108.4,130.48v-11.69h2.91l.05,1.31c.27-.22,.61-.45,1.02-.68s.87-.42,1.37-.57c.5-.15,1.01-.24,1.52-.24,1.22-.03,2.11,.3,2.69,.97,.57,.68,.86,1.86,.86,3.55v7.34h-3.21v-6.89c0-.91-.12-1.55-.36-1.91-.24-.36-.7-.53-1.4-.5-.21,0-.45,.04-.71,.11s-.53,.16-.8,.29c-.27,.13-.52,.29-.75,.48v8.42h-3.19Z"></path>
    <path class="cls-1" d="M121.09,124.75c0-1.15,.21-2.18,.63-3.11,.42-.92,1.06-1.66,1.92-2.2,.86-.54,1.95-.81,3.27-.81,.76,0,1.42,.06,1.98,.19s.93,.26,1.12,.39l-.4,2.45c-.26-.16-.58-.29-.97-.39-.39-.1-.87-.15-1.44-.15-.46,0-.9,.1-1.34,.32-.44,.21-.8,.56-1.09,1.04-.29,.48-.45,1.13-.47,1.94-.02,.88,.1,1.59,.35,2.15,.26,.56,.61,.97,1.05,1.23,.44,.26,.94,.39,1.49,.39s1.03-.06,1.48-.17,.81-.23,1.06-.36l.47,1.96c-.34,.34-.84,.59-1.52,.76-.68,.17-1.39,.26-2.14,.26-1.21,0-2.22-.26-3.02-.77-.81-.51-1.41-1.22-1.82-2.11-.41-.89-.61-1.89-.61-3.01Z"></path>
    <path class="cls-1" d="M132.37,130.48v-17.06h3.2v4.57l-.17,2.4-.1-.29c.26-.22,.59-.45,1-.67,.41-.22,.86-.41,1.35-.57,.49-.15,.99-.24,1.51-.24,1.27-.04,2.21,.32,2.8,1.06s.89,1.93,.89,3.55v7.26h-3.22v-6.89c0-.92-.13-1.56-.4-1.91-.27-.35-.73-.51-1.39-.49-.29,0-.65,.08-1.08,.21-.43,.13-.82,.35-1.19,.66v8.42h-3.2Z"></path>
    <path class="cls-1" d="M150.87,130.64c-1.8,0-3.18-.54-4.14-1.61s-1.44-2.55-1.44-4.44c0-1.13,.22-2.15,.66-3.04,.44-.9,1.07-1.6,1.91-2.13s1.85-.79,3.06-.79c.61,0,1.19,.07,1.74,.23s1.05,.42,1.48,.78c.43,.36,.78,.84,1.04,1.43,.26,.59,.4,1.31,.4,2.17,0,.43,0,.82-.02,1.19s-.05,.68-.09,.93h-8.45l.21-1.73h5.38c.04-.57,0-1.07-.09-1.5-.09-.43-.28-.77-.55-1.01-.27-.24-.66-.36-1.16-.36s-.9,.13-1.26,.4-.64,.72-.83,1.37c-.19,.65-.27,1.54-.25,2.67,.03,.76,.18,1.37,.45,1.83,.27,.46,.64,.79,1.1,.99,.46,.2,1.01,.3,1.62,.3,.34,0,.7-.03,1.1-.08,.4-.06,.78-.13,1.13-.23,.36-.09,.63-.19,.82-.29l.54,1.74c-.26,.21-.61,.4-1.07,.58-.45,.18-.96,.32-1.53,.43s-1.16,.16-1.76,.16Z"></path>
  </g>
  <path class="cls-2" d="M134.99,56.86c0,17.95-14.55,32.5-32.5,32.5s-32.5-14.55-32.5-32.5,14.55-32.5,32.5-32.5,32.5,14.55,32.5,32.5Zm-41.71,12.93h-6.31c-1.33,0-1.98,0-2.38-.26-.43-.28-.69-.74-.73-1.25-.02-.47,.3-1.05,.96-2.2l15.57-27.45c.66-1.17,1-1.75,1.42-1.96,.46-.23,1-.23,1.45,0,.42,.22,.76,.8,1.42,1.96l3.2,5.59,.02,.03c.72,1.25,1.08,1.88,1.24,2.55,.18,.73,.18,1.49,0,2.22-.16,.67-.52,1.31-1.25,2.58l-8.18,14.46-.02,.04c-.72,1.26-1.09,1.9-1.59,2.38-.55,.53-1.21,.91-1.94,1.13-.66,.18-1.41,.18-2.89,.18Zm15.93,0h9.04c1.33,0,2,0,2.4-.26,.43-.28,.7-.75,.73-1.26,.02-.46-.3-1.01-.92-2.09-.02-.04-.04-.07-.07-.11l-4.53-7.74-.05-.09c-.64-1.08-.96-1.62-1.37-1.83-.45-.23-.99-.23-1.45,0-.42,.22-.75,.78-1.41,1.92l-4.51,7.74-.02,.03c-.66,1.14-.99,1.71-.97,2.18,.03,.51,.3,.98,.73,1.26,.39,.26,1.06,.26,2.4,.26Z"></path>
</svg>
