<?xml version="1.0" encoding="UTF-8"?>
<svg xmlns="http://www.w3.org/2000/svg" id="_图层_1" data-name="图层 1" viewBox="0 0 205 155">
  <defs>
    <style>
      .cls-1 {
        fill: #0053ff;
      }

      .cls-2 {
        fill: #e5e5e5;
      }
    </style>
  </defs>
  <path class="cls-1" d="M102.45,24.62c-17.05,0-31.03,13.13-32.39,29.83h43.57v5.33h-43.57c1.36,16.7,15.34,29.84,32.39,29.84,17.95,0,32.5-14.55,32.5-32.5s-14.55-32.5-32.5-32.5Z"></path>
  <g>
    <path class="cls-2" d="M79.09,130.21v-15.62l1.59,.02c.35,0,.71-.01,1.07-.04,.36-.02,.76-.05,1.18-.07s.89-.04,1.42-.04c1.34,0,2.42,.16,3.26,.48,.84,.32,1.45,.77,1.83,1.35s.58,1.27,.58,2.06c0,.53-.08,1.03-.26,1.52s-.43,.91-.78,1.27c-.35,.36-.79,.61-1.32,.76,.62,.06,1.17,.26,1.66,.58,.49,.33,.88,.75,1.17,1.27,.29,.52,.43,1.11,.43,1.76,0,.95-.19,1.79-.57,2.52-.38,.73-1.04,1.3-1.96,1.72-.93,.42-2.22,.62-3.87,.62-.67,0-1.36-.02-2.07-.06-.71-.04-1.27-.07-1.69-.09h-1.65Zm3.27-9.12c.13,.02,.28,.04,.45,.05,.17,.01,.36,.02,.55,.02,.19,0,.37,0,.55,0h.46c.78,0,1.39-.19,1.83-.58,.44-.38,.66-1.01,.66-1.89,0-.71-.25-1.22-.75-1.53-.5-.31-1.22-.46-2.17-.46-.1,0-.27,0-.49,.02-.22,.01-.44,.03-.65,.04-.21,.02-.35,.04-.43,.08v4.25Zm0,6.81c.1,.06,.27,.11,.53,.15s.53,.06,.82,.07c.29,.01,.56,.02,.79,.02,.99,0,1.75-.19,2.28-.57,.52-.38,.79-1.03,.79-1.95,0-.79-.25-1.38-.74-1.76-.49-.38-1.28-.58-2.37-.58h-.53c-.2,0-.4,0-.61,0-.21,0-.39,.01-.56,.02s-.3,.02-.4,.04v4.55Z"></path>
    <path class="cls-2" d="M96.38,130.38c-.74,0-1.39-.15-1.95-.45-.56-.3-1-.72-1.31-1.26-.31-.54-.47-1.17-.47-1.88s.19-1.33,.58-1.84c.39-.51,.92-.91,1.58-1.2,.45-.19,.95-.34,1.5-.44,.54-.11,1.08-.18,1.63-.22,.54-.04,1.05-.06,1.52-.06l.54,.66-.54,1.03c-.25,0-.54,.02-.85,.05-.32,.04-.62,.09-.91,.15-.29,.07-.53,.14-.73,.23-.27,.13-.52,.29-.73,.5-.21,.21-.32,.53-.32,.97,0,.57,.16,.99,.47,1.25,.32,.27,.72,.4,1.22,.4,.26,0,.52-.04,.77-.11,.25-.07,.48-.15,.68-.25,.2-.09,.33-.18,.4-.27l.56,.66-.39,.9c-.32,.28-.75,.54-1.3,.79s-1.2,.37-1.95,.37Zm6.28-.17h-3.03v-1.74h-.17v-6.3c0-.59-.16-.99-.47-1.17-.31-.19-.77-.28-1.35-.28-.44,0-.9,.04-1.38,.12-.48,.08-.93,.18-1.36,.3s-.78,.26-1.07,.41l-.69-2.02c.24-.14,.61-.3,1.11-.49,.5-.19,1.08-.36,1.73-.5,.65-.14,1.31-.21,1.96-.21,1.08,0,1.96,.13,2.66,.38,.7,.25,1.21,.68,1.55,1.28,.34,.6,.51,1.43,.51,2.5v7.73Z"></path>
    <path class="cls-2" d="M105.16,129.47l.36-2.26c.11,.09,.34,.21,.68,.36,.34,.15,.75,.28,1.23,.4,.48,.12,.97,.18,1.47,.18,.64,0,1.11-.08,1.41-.26s.45-.45,.45-.8c0-.25-.1-.46-.3-.64-.2-.18-.47-.35-.81-.51-.34-.16-.72-.32-1.14-.49-.76-.3-1.38-.63-1.88-.99-.49-.36-.86-.76-1.1-1.22-.24-.46-.36-1-.35-1.61,0-.73,.22-1.33,.64-1.82,.42-.48,.97-.85,1.67-1.09,.7-.24,1.47-.36,2.32-.36s1.59,.08,2.2,.24c.61,.16,1.02,.3,1.24,.44l-.35,2.3c-.13-.11-.34-.23-.63-.36s-.61-.23-.97-.31c-.36-.08-.73-.12-1.1-.12-.68,0-1.17,.08-1.49,.25-.31,.16-.47,.4-.47,.71,0,.4,.15,.69,.47,.89s.76,.41,1.33,.65c.84,.34,1.55,.68,2.12,1.02,.57,.34,1,.73,1.29,1.17,.29,.44,.44,.97,.44,1.6,0,1.16-.42,2.04-1.25,2.65-.83,.6-1.96,.9-3.37,.9-.6,0-1.17-.05-1.72-.14-.55-.09-1.03-.21-1.45-.35-.42-.14-.73-.28-.93-.42Z"></path>
    <path class="cls-2" d="M121.2,130.38c-1.8,0-3.18-.54-4.14-1.61-.96-1.07-1.44-2.55-1.44-4.44,0-1.13,.22-2.15,.66-3.04,.44-.9,1.07-1.6,1.91-2.13,.83-.52,1.85-.79,3.05-.79,.61,0,1.19,.07,1.74,.23s1.04,.42,1.48,.78c.43,.36,.78,.84,1.04,1.43,.26,.59,.4,1.31,.4,2.17,0,.43,0,.82-.02,1.19s-.05,.68-.1,.93h-8.45l.21-1.73h5.38c.04-.57,0-1.07-.09-1.5-.09-.43-.28-.77-.55-1.01-.27-.24-.66-.36-1.16-.36s-.9,.13-1.26,.4c-.36,.27-.64,.72-.83,1.37s-.28,1.54-.25,2.67c.03,.76,.18,1.37,.45,1.83,.27,.46,.64,.79,1.1,.99,.46,.2,1.01,.3,1.62,.3,.34,0,.7-.03,1.1-.08,.4-.06,.78-.13,1.13-.23,.36-.09,.63-.19,.82-.29l.54,1.74c-.26,.21-.62,.4-1.07,.58-.45,.18-.96,.32-1.53,.43s-1.16,.16-1.76,.16Z"></path>
  </g>
</svg>
