<?xml version="1.0" encoding="UTF-8"?>
<svg xmlns="http://www.w3.org/2000/svg" id="_图层_1" data-name="图层 1" viewBox="0 0 205 155">
  <defs>
    <style>
      .cls-1 {
        fill: #f3ba2f;
      }

      .cls-2 {
        fill: #e5e5e5;
      }
    </style>
  </defs>
  <g>
    <path class="cls-1" d="M89.88,52.27l12.63-12.62,12.63,12.63,7.34-7.35-19.97-19.98-19.97,19.97,7.35,7.34Z"></path>
    <path class="cls-1" d="M70,57.46l7.34-7.35,7.35,7.35-7.35,7.34-7.34-7.34Z"></path>
    <path class="cls-1" d="M89.88,62.65l12.63,12.63,12.63-12.63,7.35,7.34-19.97,19.98-19.98-19.96,7.35-7.35Z"></path>
    <path class="cls-1" d="M120.31,57.46l7.34-7.35,7.35,7.34-7.35,7.35-7.34-7.35Z"></path>
    <path class="cls-1" d="M109.96,57.46l-7.45-7.45-5.51,5.51-.64,.63-1.3,1.3,7.45,7.44,7.45-7.43h0Z"></path>
  </g>
  <g>
    <path class="cls-2" d="M62.42,130.44v-15.62l1.59,.02c.35,0,.71-.01,1.07-.04,.36-.02,.76-.05,1.18-.07s.89-.04,1.42-.04c1.34,0,2.42,.16,3.26,.48s1.45,.77,1.83,1.35c.38,.58,.58,1.27,.58,2.06,0,.53-.09,1.03-.26,1.52-.17,.49-.43,.91-.78,1.27-.35,.36-.79,.61-1.32,.76,.62,.06,1.17,.26,1.66,.58,.49,.33,.88,.75,1.17,1.27,.29,.52,.43,1.11,.43,1.76,0,.95-.19,1.79-.57,2.52-.38,.73-1.04,1.3-1.96,1.72-.93,.42-2.22,.62-3.87,.62-.67,0-1.36-.02-2.07-.06-.71-.04-1.27-.07-1.69-.09h-1.65Zm3.27-9.12c.13,.02,.28,.04,.45,.05,.17,.01,.36,.02,.55,.02,.19,0,.37,0,.55,0h.46c.78,0,1.4-.19,1.83-.58,.44-.38,.66-1.01,.66-1.89,0-.71-.25-1.22-.75-1.53-.5-.31-1.22-.46-2.17-.46-.1,0-.27,0-.49,.02-.22,.01-.44,.03-.65,.04-.21,.02-.35,.04-.43,.08v4.25Zm0,6.81c.1,.06,.27,.11,.53,.15,.26,.04,.53,.06,.82,.07,.29,.01,.56,.02,.79,.02,.99,0,1.75-.19,2.28-.57s.79-1.03,.79-1.95c0-.79-.25-1.38-.74-1.76s-1.28-.58-2.37-.58h-.53c-.2,0-.4,0-.61,0-.21,0-.39,.01-.56,.02s-.3,.02-.4,.04v4.55Z"></path>
    <path class="cls-2" d="M78.21,117.06c-.52,0-.96-.16-1.31-.48-.36-.32-.54-.74-.54-1.26,0-.35,.1-.67,.29-.96,.19-.29,.44-.52,.76-.7,.31-.17,.65-.26,1-.26,.57,0,1.02,.16,1.35,.49,.33,.33,.49,.74,.49,1.25s-.2,.99-.6,1.36c-.4,.37-.88,.56-1.43,.56Zm-1.44,13.38v-11.69h3.2v11.69h-3.2Z"></path>
    <path class="cls-2" d="M83.31,130.44v-11.69h2.91l.05,1.31c.27-.22,.61-.45,1.02-.68,.41-.23,.87-.42,1.37-.57,.5-.15,1.01-.24,1.52-.24,1.22-.03,2.11,.3,2.69,.97,.57,.68,.86,1.86,.86,3.55v7.34h-3.21v-6.89c0-.91-.12-1.55-.36-1.91s-.7-.53-1.4-.5c-.21,0-.45,.04-.71,.11-.26,.07-.53,.16-.8,.29-.27,.13-.52,.29-.75,.48v8.42h-3.19Z"></path>
    <path class="cls-2" d="M99.55,130.6c-.74,0-1.39-.15-1.95-.45s-1-.72-1.31-1.26c-.31-.54-.47-1.17-.47-1.88s.19-1.33,.58-1.84c.39-.51,.92-.91,1.58-1.2,.45-.19,.95-.34,1.5-.44,.54-.11,1.08-.18,1.63-.22,.54-.04,1.05-.06,1.52-.06l.54,.66-.54,1.03c-.25,0-.54,.02-.85,.05-.32,.04-.62,.09-.91,.15-.29,.07-.54,.14-.73,.23-.27,.13-.52,.29-.73,.5-.21,.21-.32,.53-.32,.97,0,.57,.16,.99,.47,1.25s.72,.4,1.22,.4c.26,0,.52-.04,.77-.11,.26-.07,.48-.15,.68-.25,.2-.09,.33-.18,.4-.27l.56,.66-.39,.9c-.31,.28-.75,.54-1.3,.79-.55,.25-1.2,.37-1.95,.37Zm6.28-.17h-3.04v-1.74h-.17v-6.3c0-.59-.16-.99-.47-1.17s-.77-.28-1.35-.28c-.44,0-.9,.04-1.38,.12-.48,.08-.93,.18-1.36,.3s-.78,.26-1.07,.41l-.69-2.02c.24-.14,.61-.3,1.11-.49,.5-.19,1.08-.36,1.73-.5s1.31-.21,1.96-.21c1.08,0,1.96,.13,2.66,.38,.7,.25,1.21,.68,1.55,1.28,.34,.6,.51,1.43,.51,2.5v7.73Z"></path>
    <path class="cls-2" d="M108.98,130.44v-11.69h2.91l.05,1.31c.27-.22,.61-.45,1.02-.68s.87-.42,1.37-.57c.5-.15,1.01-.24,1.52-.24,1.22-.03,2.11,.3,2.69,.97,.57,.68,.86,1.86,.86,3.55v7.34h-3.21v-6.89c0-.91-.12-1.55-.36-1.91-.24-.36-.7-.53-1.4-.5-.21,0-.45,.04-.71,.11s-.53,.16-.8,.29c-.27,.13-.52,.29-.75,.48v8.42h-3.19Z"></path>
    <path class="cls-2" d="M121.68,124.71c0-1.15,.21-2.18,.63-3.11,.42-.92,1.06-1.66,1.92-2.2,.86-.54,1.95-.81,3.27-.81,.76,0,1.42,.06,1.98,.19s.93,.26,1.12,.39l-.4,2.45c-.26-.16-.58-.29-.97-.39-.39-.1-.87-.15-1.44-.15-.46,0-.9,.1-1.34,.32-.44,.21-.8,.56-1.09,1.04-.29,.48-.45,1.13-.47,1.94-.02,.88,.1,1.59,.35,2.15,.26,.56,.61,.97,1.05,1.23,.44,.26,.94,.39,1.49,.39s1.03-.06,1.48-.17,.81-.23,1.06-.36l.47,1.96c-.34,.34-.84,.59-1.52,.76-.68,.17-1.39,.26-2.14,.26-1.21,0-2.22-.26-3.02-.77-.81-.51-1.41-1.22-1.82-2.11-.41-.89-.61-1.89-.61-3.01Z"></path>
    <path class="cls-2" d="M137.87,130.6c-1.8,0-3.18-.54-4.14-1.61s-1.44-2.55-1.44-4.44c0-1.13,.22-2.15,.66-3.04,.44-.9,1.07-1.6,1.91-2.13s1.85-.79,3.06-.79c.61,0,1.19,.07,1.74,.23s1.05,.42,1.48,.78c.43,.36,.78,.84,1.04,1.43,.26,.59,.4,1.31,.4,2.17,0,.43,0,.82-.02,1.19s-.05,.68-.09,.93h-8.45l.21-1.73h5.38c.04-.57,0-1.07-.09-1.5-.09-.43-.28-.77-.55-1.01-.27-.24-.66-.36-1.16-.36s-.9,.13-1.26,.4-.64,.72-.83,1.37c-.19,.65-.27,1.54-.25,2.67,.03,.76,.18,1.37,.45,1.83,.27,.46,.64,.79,1.1,.99,.46,.2,1.01,.3,1.62,.3,.34,0,.7-.03,1.1-.08,.4-.06,.78-.13,1.13-.23,.36-.09,.63-.19,.82-.29l.54,1.74c-.26,.21-.61,.4-1.07,.58-.45,.18-.96,.32-1.53,.43s-1.16,.16-1.76,.16Z"></path>
  </g>
</svg>
