<?xml version="1.0" encoding="UTF-8"?>
<svg xmlns="http://www.w3.org/2000/svg" id="_图层_1" data-name="图层 1" viewBox="0 0 205 155">
  <defs>
    <style>
      .cls-1 {
        fill: #01c99b;
      }

      .cls-2 {
        fill: #e5e5e5;
      }
    </style>
  </defs>
  <g>
    <path class="cls-1" d="M72.17,80.25c3.02,3.21,19.65,18.57,45.73,.74,18.87-14.69,18.4-46.54,16.58-56.17-.63,1.4-22.52,49.39-62.32,55.43Zm62.32-55.43c-.23-.09-24.5-3.4-48.5,12.05-14.9,9.59-16.88,23.64-16.19,33.02,34.88-3.93,63.9-43.97,64.69-45.08Z"></path>
    <path class="cls-1" d="M134.49,24.82c-.23-.09-24.5-3.4-48.5,12.05-14.9,9.59-16.88,23.64-16.19,33.02,34.88-3.93,63.9-43.97,64.69-45.08Z"></path>
  </g>
  <g>
    <path class="cls-2" d="M61.8,130.54v-15.62l1.59,.02c.35,0,.71-.01,1.07-.04,.36-.02,.76-.05,1.18-.07s.89-.04,1.42-.04c1.34,0,2.42,.16,3.26,.48s1.45,.77,1.83,1.35c.38,.58,.58,1.27,.58,2.06,0,.53-.09,1.03-.26,1.52-.17,.49-.43,.91-.78,1.27-.35,.36-.79,.61-1.32,.76,.62,.06,1.17,.26,1.66,.58,.49,.33,.88,.75,1.17,1.27,.29,.52,.43,1.11,.43,1.76,0,.95-.19,1.79-.57,2.52-.38,.73-1.04,1.3-1.96,1.72-.93,.42-2.22,.62-3.87,.62-.67,0-1.36-.02-2.07-.06-.71-.04-1.27-.07-1.69-.09h-1.65Zm3.27-9.12c.13,.02,.28,.04,.45,.05,.17,.01,.36,.02,.55,.02,.19,0,.37,0,.55,0h.46c.78,0,1.4-.19,1.83-.58,.44-.38,.66-1.01,.66-1.89,0-.71-.25-1.22-.75-1.53-.5-.31-1.22-.46-2.17-.46-.1,0-.27,0-.49,.02-.22,.01-.44,.03-.65,.04-.21,.02-.35,.04-.43,.08v4.25Zm0,6.81c.1,.06,.27,.11,.53,.15,.26,.04,.53,.06,.82,.07,.29,.01,.56,.02,.79,.02,.99,0,1.75-.19,2.28-.57s.79-1.03,.79-1.95c0-.79-.25-1.38-.74-1.76s-1.28-.58-2.37-.58h-.53c-.2,0-.4,0-.61,0-.21,0-.39,.01-.56,.02s-.3,.02-.4,.04v4.55Z"></path>
    <path class="cls-2" d="M77.59,117.17c-.52,0-.96-.16-1.31-.48-.36-.32-.54-.74-.54-1.26,0-.35,.1-.67,.29-.96,.19-.29,.44-.52,.76-.7,.31-.17,.65-.26,1-.26,.57,0,1.02,.16,1.35,.49,.33,.33,.49,.74,.49,1.25s-.2,.99-.6,1.36c-.4,.37-.88,.56-1.43,.56Zm-1.44,13.38v-11.69h3.2v11.69h-3.2Z"></path>
    <path class="cls-2" d="M86.23,130.71c-.71,0-1.3-.12-1.77-.35-.47-.23-.81-.61-1.04-1.12s-.34-1.19-.34-2.03v-6.17h-1.42v-1.71c.52-.15,.93-.29,1.24-.42s.54-.36,.68-.69c.07-.16,.15-.35,.23-.57,.08-.22,.17-.45,.26-.7,.09-.25,.19-.51,.28-.77h1.93v2.67h3.14v2.19h-3.14v4.82c0,.74,.04,1.28,.12,1.62,.08,.34,.21,.56,.4,.65,.19,.09,.46,.14,.82,.14,.18,0,.39-.02,.63-.07,.24-.05,.47-.1,.68-.17,.22-.07,.38-.14,.5-.22l.42,1.8c-.19,.17-.47,.34-.85,.51-.38,.17-.81,.31-1.29,.42-.48,.11-.98,.17-1.48,.17Z"></path>
    <path class="cls-2" d="M92.75,130.54v-9.5h-1.56v-1.84l1.56-.36v-1.12c0-.85,.13-1.57,.39-2.14,.26-.57,.61-1.02,1.05-1.36,.44-.34,.92-.58,1.44-.72s1.03-.22,1.54-.22,.91,.03,1.26,.08c.35,.06,.58,.1,.7,.14v2.29c-.16-.06-.37-.12-.62-.16-.25-.05-.58-.07-.99-.07-.46,0-.83,.16-1.12,.49s-.44,.85-.44,1.56v1.22h2.68v2.19h-2.68v9.5h-3.22Zm9.52-13.38c-.52,0-.96-.16-1.31-.48-.36-.32-.54-.74-.54-1.26,0-.35,.1-.67,.29-.96,.19-.29,.44-.52,.76-.7,.31-.17,.65-.26,1-.26,.57,0,1.03,.16,1.35,.49,.33,.33,.49,.74,.49,1.25s-.2,.99-.6,1.36c-.4,.37-.88,.56-1.43,.56Zm-1.44,13.38v-11.69h3.2v11.69h-3.2Z"></path>
    <path class="cls-2" d="M107.38,130.54v-11.69h2.91l.05,1.31c.27-.22,.61-.45,1.02-.68s.87-.42,1.37-.57c.5-.15,1.01-.24,1.52-.24,1.22-.03,2.11,.3,2.69,.97,.57,.68,.86,1.86,.86,3.55v7.34h-3.21v-6.89c0-.91-.12-1.55-.36-1.91-.24-.36-.7-.53-1.4-.5-.21,0-.45,.04-.71,.11s-.53,.16-.8,.29c-.27,.13-.52,.29-.75,.48v8.42h-3.19Z"></path>
    <path class="cls-2" d="M125.83,130.71c-1.8,0-3.18-.54-4.14-1.61s-1.44-2.55-1.44-4.44c0-1.13,.22-2.15,.66-3.04,.44-.9,1.07-1.6,1.91-2.13s1.85-.79,3.06-.79c.61,0,1.19,.07,1.74,.23s1.05,.42,1.48,.78c.43,.36,.78,.84,1.04,1.43,.26,.59,.4,1.31,.4,2.17,0,.43,0,.82-.02,1.19s-.05,.68-.09,.93h-8.45l.21-1.73h5.38c.04-.57,0-1.07-.09-1.5-.09-.43-.28-.77-.55-1.01-.27-.24-.66-.36-1.16-.36s-.9,.13-1.26,.4-.64,.72-.83,1.37c-.19,.65-.27,1.54-.25,2.67,.03,.76,.18,1.37,.45,1.83,.27,.46,.64,.79,1.1,.99,.46,.2,1.01,.3,1.62,.3,.34,0,.7-.03,1.1-.08,.4-.06,.78-.13,1.13-.23,.36-.09,.63-.19,.82-.29l.54,1.74c-.26,.21-.61,.4-1.07,.58-.45,.18-.96,.32-1.53,.43s-1.16,.16-1.76,.16Z"></path>
    <path class="cls-2" d="M131.41,130.54l4.28-6.21,.05,.69-4.34-6.18h3.53l2.02,3.13,.82,1.38h-.81l.7-1.39,1.94-3.12h3.51l-4.38,6.12v-.81l4.46,6.38h-3.57l-2.11-3.33-.82-1.38h.9l-.68,1.39-1.93,3.32h-3.58Z"></path>
  </g>
</svg>
