<?xml version="1.0" encoding="UTF-8"?>
<svg xmlns="http://www.w3.org/2000/svg" id="_图层_1" data-name="图层 1" viewBox="0 0 205 155">
  <defs>
    <style>
      .cls-1 {
        fill: #fff;
      }

      .cls-2 {
        fill: #e5e5e5;
      }

      .cls-3 {
        fill: #f0b90b;
        fill-rule: evenodd;
      }
    </style>
  </defs>
  <g>
    <path class="cls-3" d="M98.77,24.34c17.95,0,32.5,14.55,32.5,32.5s-14.55,32.5-32.5,32.5-32.5-14.55-32.5-32.5,14.55-32.5,32.5-32.5h0Z"></path>
    <path class="cls-1" d="M84.13,56.84l.02,8.59,7.3,4.3v5.03l-11.58-6.79v-13.65l4.25,2.51h0Zm0-8.59v5.01l-4.25-2.52v-5.01l4.25-2.52,4.27,2.52-4.27,2.52h0Zm10.38-2.52l4.25-2.52,4.27,2.52-4.27,2.52-4.25-2.52h0Z"></path>
    <path class="cls-1" d="M87.2,63.66v-5.03l4.25,2.52v5.01l-4.25-2.49h0Zm7.3,7.88l4.25,2.52,4.27-2.52v5.01l-4.27,2.52-4.25-2.52v-5.01h0Zm14.62-25.8l4.25-2.52,4.27,2.52v5.01l-4.27,2.52v-5.01l-4.25-2.52h0Zm4.25,19.7l.02-8.59,4.25-2.52v13.65l-11.58,6.79v-5.03l7.3-4.29h0Z"></path>
    <polygon class="cls-1" points="110.33 63.66 106.08 66.15 106.08 61.14 110.33 58.62 110.33 63.66"></polygon>
    <path class="cls-1" d="M110.33,50.03l.02,5.03-7.32,4.3v8.61l-4.25,2.49-4.25-2.49v-8.61l-7.32-4.3v-5.03l4.27-2.52,7.28,4.32,7.32-4.32,4.27,2.52h-.02Zm-23.13-8.59l11.55-6.81,11.58,6.81-4.25,2.52-7.32-4.32-7.3,4.32-4.25-2.52h0Z"></path>
  </g>
  <g>
    <path class="cls-2" d="M50.1,130.49v-15.62l1.59,.02c.35,0,.71-.01,1.07-.04,.36-.02,.76-.05,1.18-.07s.89-.04,1.42-.04c1.34,0,2.42,.16,3.26,.48s1.45,.77,1.83,1.35c.38,.58,.58,1.27,.58,2.06,0,.53-.09,1.03-.26,1.52-.17,.49-.43,.91-.78,1.27-.35,.36-.79,.61-1.32,.76,.62,.06,1.17,.26,1.66,.58,.49,.33,.88,.75,1.17,1.27,.29,.52,.43,1.11,.43,1.76,0,.95-.19,1.79-.57,2.52-.38,.73-1.04,1.3-1.96,1.72-.93,.42-2.22,.62-3.87,.62-.67,0-1.36-.02-2.07-.06-.71-.04-1.27-.07-1.69-.09h-1.65Zm3.27-9.12c.13,.02,.28,.04,.45,.05,.17,.01,.36,.02,.55,.02,.19,0,.37,0,.55,0h.46c.78,0,1.4-.19,1.83-.58,.44-.38,.66-1.01,.66-1.89,0-.71-.25-1.22-.75-1.53-.5-.31-1.22-.46-2.17-.46-.1,0-.27,0-.49,.02-.22,.01-.44,.03-.65,.04-.21,.02-.35,.04-.43,.08v4.25Zm0,6.81c.1,.06,.27,.11,.53,.15,.26,.04,.53,.06,.82,.07,.29,.01,.56,.02,.79,.02,.99,0,1.75-.19,2.28-.57s.79-1.03,.79-1.95c0-.79-.25-1.38-.74-1.76s-1.28-.58-2.37-.58h-.53c-.2,0-.4,0-.61,0-.21,0-.39,.01-.56,.02s-.3,.02-.4,.04v4.55Z"></path>
    <path class="cls-2" d="M64.51,130.49v-15.6h3.04l5.85,9.23,2.04,4.06h-.72l-.47-5.24v-8.05h3v15.6h-3.26l-5.59-8.95-2.34-4.62h.88l.55,5.68v7.89h-2.98Z"></path>
    <path class="cls-2" d="M80.85,130.49v-15.62l1.59,.02c.35,0,.71-.01,1.07-.04,.36-.02,.76-.05,1.18-.07s.89-.04,1.42-.04c1.34,0,2.42,.16,3.26,.48,.84,.32,1.45,.77,1.83,1.35s.58,1.27,.58,2.06c0,.53-.09,1.03-.26,1.52-.17,.49-.43,.91-.78,1.27-.35,.36-.79,.61-1.32,.76,.62,.06,1.17,.26,1.66,.58,.49,.33,.88,.75,1.17,1.27s.43,1.11,.43,1.76c0,.95-.19,1.79-.57,2.52-.38,.73-1.04,1.3-1.96,1.72-.93,.42-2.22,.62-3.87,.62-.67,0-1.36-.02-2.07-.06-.71-.04-1.27-.07-1.69-.09h-1.65Zm3.27-9.12c.13,.02,.28,.04,.45,.05,.17,.01,.36,.02,.55,.02,.19,0,.37,0,.55,0h.46c.78,0,1.4-.19,1.83-.58,.44-.38,.66-1.01,.66-1.89,0-.71-.25-1.22-.75-1.53-.5-.31-1.22-.46-2.17-.46-.1,0-.27,0-.49,.02-.22,.01-.44,.03-.65,.04-.21,.02-.35,.04-.43,.08v4.25Zm0,6.81c.1,.06,.27,.11,.53,.15,.26,.04,.53,.06,.82,.07,.29,.01,.56,.02,.79,.02,.99,0,1.75-.19,2.28-.57,.52-.38,.79-1.03,.79-1.95,0-.79-.25-1.38-.74-1.76-.49-.38-1.28-.58-2.37-.58h-.53c-.2,0-.4,0-.61,0-.21,0-.39,.01-.56,.02s-.3,.02-.4,.04v4.55Z"></path>
    <path class="cls-2" d="M97.98,122.73c0-1.31,.2-2.46,.6-3.46,.4-1,.95-1.83,1.66-2.51s1.52-1.18,2.45-1.53c.93-.34,1.92-.51,2.98-.51,.75,0,1.38,.04,1.88,.12,.51,.08,.93,.17,1.28,.26,.35,.09,.66,.17,.93,.23l-.44,2.86c-.13-.08-.33-.19-.6-.33s-.63-.26-1.09-.37c-.46-.11-1.03-.16-1.72-.16-.89,0-1.68,.21-2.36,.62-.69,.41-1.23,1.01-1.62,1.79-.39,.78-.59,1.71-.59,2.81s.18,2.06,.54,2.9c.36,.83,.89,1.49,1.59,1.96,.7,.47,1.55,.71,2.56,.71,.47,0,.95-.05,1.43-.16,.48-.11,.91-.23,1.29-.38s.66-.3,.84-.45v2.72c-.28,.11-.6,.23-.97,.36-.36,.13-.78,.23-1.25,.33s-1.02,.14-1.64,.14c-1.62,0-3.01-.33-4.17-.98-1.16-.65-2.04-1.58-2.66-2.77-.62-1.19-.92-2.58-.92-4.18Z"></path>
    <path class="cls-2" d="M112.15,130.49v-17.06h3.2v4.57l-.17,2.4-.1-.29c.26-.22,.59-.45,1-.67,.41-.22,.86-.41,1.35-.57,.49-.15,.99-.24,1.51-.24,1.27-.04,2.21,.32,2.8,1.06s.89,1.93,.89,3.55v7.26h-3.22v-6.89c0-.92-.13-1.56-.4-1.91-.27-.35-.73-.51-1.39-.49-.29,0-.65,.08-1.08,.21-.43,.13-.82,.35-1.19,.66v8.42h-3.2Z"></path>
    <path class="cls-2" d="M128.45,130.66c-.74,0-1.39-.15-1.95-.45-.56-.3-1-.72-1.31-1.26-.31-.54-.47-1.17-.47-1.88s.19-1.33,.58-1.84c.39-.51,.92-.91,1.58-1.2,.46-.19,.95-.34,1.5-.44,.54-.11,1.08-.18,1.63-.22,.54-.04,1.05-.06,1.52-.06l.54,.66-.54,1.03c-.25,0-.54,.02-.85,.05-.32,.04-.62,.09-.91,.15-.29,.07-.53,.14-.73,.23-.27,.13-.52,.29-.73,.5s-.32,.53-.32,.97c0,.57,.16,.99,.47,1.25,.32,.27,.72,.4,1.22,.4,.26,0,.52-.04,.77-.11,.25-.07,.48-.15,.68-.25,.2-.09,.33-.18,.4-.27l.56,.66-.39,.9c-.32,.28-.75,.54-1.3,.79s-1.2,.37-1.95,.37Zm6.28-.17h-3.03v-1.74h-.17v-6.3c0-.59-.16-.99-.47-1.17-.32-.19-.77-.28-1.35-.28-.44,0-.9,.04-1.38,.12-.48,.08-.93,.18-1.36,.3-.43,.13-.78,.26-1.07,.41l-.69-2.02c.24-.14,.61-.3,1.11-.49,.5-.19,1.08-.36,1.73-.5s1.31-.21,1.96-.21c1.08,0,1.96,.13,2.66,.38s1.21,.68,1.55,1.28c.34,.6,.51,1.43,.51,2.5v7.73Z"></path>
    <path class="cls-2" d="M139.38,117.11c-.52,0-.96-.16-1.31-.48-.36-.32-.54-.74-.54-1.26,0-.35,.1-.67,.29-.96,.19-.29,.44-.52,.76-.7,.31-.17,.65-.26,1-.26,.57,0,1.02,.16,1.35,.49,.33,.33,.49,.74,.49,1.25s-.2,.99-.6,1.36c-.4,.37-.88,.56-1.43,.56Zm-1.44,13.38v-11.69h3.2v11.69h-3.2Z"></path>
    <path class="cls-2" d="M144.48,130.49v-11.69h2.91l.05,1.31c.27-.22,.61-.45,1.02-.68s.87-.42,1.37-.57c.5-.15,1.01-.24,1.52-.24,1.22-.03,2.11,.3,2.69,.97,.57,.68,.86,1.86,.86,3.55v7.34h-3.21v-6.89c0-.91-.12-1.55-.36-1.91-.24-.36-.7-.53-1.4-.5-.21,0-.45,.04-.71,.11s-.53,.16-.8,.29c-.27,.13-.52,.29-.75,.48v8.42h-3.19Z"></path>
  </g>
</svg>
