<?xml version="1.0" encoding="UTF-8"?>
<svg xmlns="http://www.w3.org/2000/svg" id="_图层_1" data-name="图层 1" viewBox="0 0 205 155">
  <defs>
    <style>
      .cls-1 {
        fill: #051221;
      }

      .cls-2 {
        fill: #fefefe;
      }

      .cls-3 {
        fill: #e5e5e5;
      }
    </style>
  </defs>
  <g>
    <path class="cls-3" d="M67.19,122.26c0-1.31,.2-2.46,.6-3.46,.4-1,.95-1.83,1.66-2.51s1.52-1.18,2.45-1.53c.93-.34,1.92-.51,2.98-.51,.75,0,1.38,.04,1.88,.12,.51,.08,.93,.17,1.28,.26,.35,.09,.66,.17,.93,.23l-.44,2.86c-.13-.08-.33-.19-.6-.33s-.63-.26-1.09-.37c-.46-.11-1.03-.16-1.72-.16-.89,0-1.68,.21-2.36,.62-.69,.41-1.22,1.01-1.62,1.79-.39,.78-.59,1.71-.59,2.81s.18,2.06,.54,2.9,.89,1.49,1.59,1.96c.7,.47,1.55,.71,2.56,.71,.47,0,.95-.05,1.43-.16,.48-.11,.91-.23,1.29-.38s.66-.3,.84-.45v2.72c-.28,.11-.6,.23-.97,.36s-.78,.23-1.25,.33-1.02,.14-1.64,.14c-1.62,0-3.01-.33-4.17-.98s-2.04-1.58-2.66-2.77c-.62-1.19-.92-2.58-.92-4.18Z"></path>
    <path class="cls-3" d="M81.26,130.02v-11.69h2.77l.18,1.83,.25,.56v9.3h-3.2Zm3.01-7.62l-.15-2.25c.13-.34,.36-.66,.69-.96,.34-.3,.73-.55,1.2-.75,.46-.19,.95-.29,1.46-.29,.21,0,.4,.01,.58,.03,.18,.02,.31,.06,.39,.11v3.12c-.1-.06-.25-.13-.45-.19-.2-.06-.51-.09-.92-.09-.5,0-.94,.07-1.3,.21-.36,.14-.67,.32-.92,.51-.25,.2-.44,.38-.58,.54Z"></path>
    <path class="cls-3" d="M95.1,130.19c-1.02,0-1.89-.17-2.6-.5-.71-.33-1.29-.79-1.73-1.37s-.75-1.25-.95-2c-.2-.75-.29-1.55-.28-2.39,.02-1.25,.28-2.3,.78-3.15,.5-.85,1.18-1.5,2.05-1.94,.86-.44,1.85-.66,2.95-.66,1.37,0,2.47,.29,3.29,.86,.82,.57,1.41,1.34,1.76,2.28,.36,.95,.52,1.98,.5,3.09-.01,1.25-.27,2.31-.77,3.17s-1.18,1.51-2.04,1.95c-.86,.44-1.85,.66-2.96,.66Zm.08-2.24c.83,0,1.44-.3,1.82-.93s.57-1.54,.57-2.74c0-.71-.08-1.35-.23-1.93s-.4-1.05-.74-1.4c-.34-.35-.79-.53-1.35-.54-.84,0-1.45,.3-1.83,.92-.38,.62-.57,1.51-.57,2.68,0,.71,.08,1.37,.23,1.97,.15,.6,.4,1.08,.74,1.43,.34,.36,.79,.54,1.36,.54Z"></path>
    <path class="cls-3" d="M103.29,130.02v-11.69h2.91l.05,1.31c.26-.22,.6-.45,1.02-.68s.87-.42,1.37-.57c.5-.15,1.01-.24,1.52-.24,1.22-.03,2.11,.3,2.69,.97,.57,.68,.86,1.86,.86,3.55v7.34h-3.21v-6.89c0-.91-.12-1.55-.36-1.91-.24-.36-.7-.53-1.4-.5-.21,0-.45,.04-.71,.11s-.53,.16-.8,.29c-.27,.13-.52,.29-.75,.48v8.42h-3.19Z"></path>
    <path class="cls-3" d="M121.56,130.19c-1.02,0-1.89-.17-2.6-.5-.71-.33-1.29-.79-1.73-1.37s-.75-1.25-.95-2-.29-1.55-.28-2.39c.02-1.25,.28-2.3,.78-3.15,.5-.85,1.18-1.5,2.05-1.94,.87-.44,1.85-.66,2.95-.66,1.37,0,2.47,.29,3.29,.86,.82,.57,1.41,1.34,1.76,2.28s.53,1.98,.5,3.09c-.01,1.25-.27,2.31-.77,3.17s-1.18,1.51-2.04,1.95c-.86,.44-1.85,.66-2.96,.66Zm.08-2.24c.83,0,1.44-.3,1.82-.93s.57-1.54,.57-2.74c0-.71-.08-1.35-.23-1.93-.15-.58-.4-1.05-.74-1.4-.34-.35-.79-.53-1.35-.54-.84,0-1.45,.3-1.83,.92-.38,.62-.57,1.51-.57,2.68,0,.71,.08,1.37,.23,1.97,.15,.6,.4,1.08,.74,1.43,.34,.36,.79,.54,1.36,.54Z"></path>
    <path class="cls-3" d="M129.1,129.27l.36-2.26c.11,.09,.34,.21,.68,.36,.34,.15,.75,.28,1.23,.4,.48,.12,.97,.18,1.47,.18,.64,0,1.11-.08,1.41-.26s.45-.45,.45-.8c0-.25-.1-.46-.3-.64-.2-.18-.47-.35-.81-.51-.34-.16-.72-.32-1.14-.49-.76-.3-1.38-.63-1.87-.99-.49-.36-.86-.76-1.1-1.22-.24-.46-.36-1-.35-1.61,0-.73,.22-1.33,.64-1.82,.42-.48,.97-.85,1.67-1.09,.7-.24,1.47-.36,2.31-.36s1.59,.08,2.2,.24c.61,.16,1.02,.3,1.24,.44l-.35,2.3c-.13-.11-.34-.23-.63-.36s-.61-.23-.97-.31c-.36-.08-.73-.12-1.1-.12-.68,0-1.17,.08-1.49,.25-.31,.16-.47,.4-.47,.71,0,.4,.15,.69,.47,.89,.32,.19,.76,.41,1.33,.65,.84,.34,1.54,.68,2.12,1.02,.57,.34,1,.73,1.29,1.17,.29,.44,.44,.97,.44,1.6,0,1.16-.42,2.04-1.25,2.65-.83,.6-1.96,.9-3.37,.9-.59,0-1.17-.05-1.72-.14s-1.03-.21-1.45-.35c-.42-.14-.73-.28-.93-.42Z"></path>
  </g>
  <g>
    <path class="cls-2" d="M74.18,57.17c0-4.92,.02-9.84-.02-14.76,0-1,.21-1.59,1.17-2.14,8.74-5,17.45-10.06,26.15-15.13,.73-.42,1.28-.45,2.02-.02,8.79,5.13,17.59,10.24,26.42,15.3,.72,.41,.92,.85,.92,1.63-.02,10.16-.03,20.32,0,30.48,0,.88-.3,1.29-1.04,1.71-8.78,5.04-17.53,10.12-26.28,15.23-.73,.43-1.28,.44-2.02,.01-8.74-5.1-17.5-10.18-26.28-15.22-.82-.47-1.07-.97-1.06-1.86,.04-5.08,.02-10.16,.02-15.24Z"></path>
    <path class="cls-1" d="M82.65,57.27c0-3.42,.03-6.85-.02-10.27-.01-.87,.29-1.34,1.02-1.76,5.97-3.41,11.92-6.85,17.85-10.32,.74-.43,1.28-.42,2,0,5.94,3.47,11.89,6.9,17.85,10.32,.74,.42,1.01,.91,1.01,1.77-.04,6.9-.03,13.8,0,20.7,0,.81-.27,1.26-.95,1.65-6.01,3.45-12.01,6.89-17.98,10.4-.8,.47-1.34,.28-2.01-.11-5.9-3.42-11.79-6.85-17.72-10.23-.79-.45-1.1-.96-1.09-1.89,.06-3.42,.02-6.85,.02-10.27Z"></path>
    <path class="cls-2" d="M115.75,49.67c-1.82,1.08-3.38,1.99-4.92,2.91-.54,.32-.96,.14-1.46-.16-1.96-1.17-3.97-2.26-5.93-3.45-.67-.41-1.18-.43-1.86-.01-1.91,1.16-3.85,2.27-5.8,3.35-.69,.38-.96,.85-.94,1.65,.05,2.24,.05,4.49,0,6.73-.02,.81,.27,1.26,.95,1.64,1.95,1.08,3.9,2.19,5.8,3.35,.69,.42,1.2,.38,1.86-.03,1.91-1.16,3.88-2.21,5.79-3.37,.67-.41,1.16-.5,1.86-.04,1.42,.92,2.92,1.71,4.64,2.71-2.61,1.52-5.01,2.92-7.41,4.31-1.66,.96-3.33,1.89-4.97,2.89-.62,.38-1.09,.39-1.73,.01-3.81-2.24-7.63-4.45-11.47-6.63-.68-.39-.96-.84-.95-1.64,.04-4.38,.04-8.76,0-13.15,0-.82,.3-1.25,.97-1.63,3.84-2.19,7.65-4.41,11.48-6.62,.45-.26,.82-.5,1.44-.14,4.12,2.43,8.28,4.81,12.64,7.33Z"></path>
  </g>
</svg>
