<?xml version="1.0" encoding="UTF-8"?>
<svg xmlns="http://www.w3.org/2000/svg" id="_图层_1" data-name="图层 1" viewBox="0 0 205 155">
  <defs>
    <style>
      .cls-1 {
        fill: #e5e5e5;
      }

      .cls-2 {
        fill: #6e45b7;
      }

      .cls-2, .cls-3 {
        fill-rule: evenodd;
      }

      .cls-3 {
        fill: #00d8cd;
      }
    </style>
  </defs>
  <g>
    <path class="cls-2" d="M138.67,50c0,2.55-.31,5.54-.92,8.94-3.97,20.56-15.8,30.84-35.51,30.84h-13.07l.03-.15,3.02-14.18h9.19c10.68,0,17.14-6.05,19.4-18.16,.16-.78,.29-1.56,.39-2.35l17.13-9.85c.22,1.55,.33,3.19,.33,4.9m-6.21-17.88l-15.36,8.84c-2.14-1.42-5.06-2.13-8.76-2.13h-24.79l.07-.36,2.93-13.69h25.72c3.59,0,6.84,.41,9.75,1.23,3.86,1.09,7.11,2.9,9.76,5.43,.23,.23,.46,.45,.68,.69"></path>
    <path class="cls-3" d="M107.91,51.03l-2.28,14.18h-10.64l-5.2,24.43-.03,.15h-23.42l8.79-11.84,5.77-26.92h27.01Z"></path>
  </g>
  <g>
    <path class="cls-1" d="M59.14,124.87v-15.6h1.34c.29,0,.66-.01,1.11-.04,.45-.03,.93-.06,1.44-.08,.51-.03,1-.04,1.48-.04,2.6,0,4.51,.66,5.73,1.99,1.23,1.32,1.84,3.18,1.84,5.56,0,1.78-.31,3.3-.93,4.55-.62,1.26-1.52,2.21-2.68,2.87-1.17,.66-2.56,.98-4.19,.97-.67-.01-1.35-.05-2.03-.09-.68-.05-1.31-.07-1.89-.07h-1.22Zm3.3-2.45c.27,.07,.59,.12,.98,.15,.39,.03,.77,.04,1.14,.03,.82,0,1.54-.21,2.15-.6,.62-.39,1.1-1,1.44-1.82,.35-.82,.52-1.88,.52-3.19s-.16-2.44-.49-3.24c-.33-.81-.82-1.38-1.48-1.74-.66-.35-1.48-.53-2.48-.53-.32,0-.65,.01-.98,.04-.33,.03-.6,.06-.81,.11v10.79Z"></path>
    <path class="cls-1" d="M76.09,111.5c-.52,0-.96-.16-1.31-.48-.36-.32-.54-.74-.54-1.26,0-.35,.1-.67,.29-.96,.19-.29,.44-.52,.76-.7,.31-.17,.65-.26,1-.26,.57,0,1.02,.16,1.35,.49,.33,.33,.49,.74,.49,1.25s-.2,.99-.6,1.36c-.4,.37-.88,.56-1.43,.56Zm-1.44,13.38v-11.69h3.2v11.69h-3.2Z"></path>
    <path class="cls-1" d="M85.89,130.17c-1.84-.01-3.21-.32-4.11-.93s-1.35-1.46-1.35-2.58c0-.41,.1-.79,.29-1.12,.2-.33,.46-.62,.8-.85,.34-.23,.73-.42,1.16-.54l1.83,.17c-.12,.1-.26,.22-.42,.37-.16,.15-.3,.34-.41,.57-.12,.23-.18,.53-.18,.88,0,.4,.07,.76,.23,1.09,.15,.33,.41,.59,.78,.79,.37,.2,.88,.29,1.54,.29,.55,0,1.04-.06,1.5-.18,.45-.12,.81-.31,1.07-.57,.26-.26,.39-.59,.39-.99,0-.35-.06-.66-.18-.92s-.36-.47-.72-.61c-.36-.15-.89-.22-1.59-.22h-1.94c-.27,0-.5-.02-.7-.06-.2-.04-.4-.08-.6-.12-.13-.04-.23-.07-.28-.11-.05-.04-.15-.07-.3-.1-.52-.15-.9-.36-1.12-.65-.22-.28-.34-.63-.34-1.05,0-.27,.07-.56,.18-.86,.11-.3,.3-.58,.58-.86,.27-.28,.64-.51,1.11-.71l1.81,.33c-.28,.11-.5,.27-.66,.5-.16,.23-.24,.45-.24,.68,0,.34,.11,.58,.32,.71,.21,.13,.58,.19,1.11,.19h2.11c.9,0,1.65,.09,2.24,.26s1.05,.42,1.39,.72c.34,.3,.57,.65,.71,1.03,.14,.38,.2,.78,.2,1.19,0,.7-.17,1.32-.5,1.85-.34,.54-.79,.98-1.38,1.34-.58,.36-1.24,.63-1.98,.81-.74,.18-1.52,.27-2.33,.26Zm-.17-9.25c-.97,0-1.82-.15-2.57-.46-.75-.31-1.33-.75-1.75-1.33s-.63-1.27-.63-2.08c0-.88,.21-1.61,.62-2.21s.99-1.04,1.74-1.34,1.62-.46,2.61-.46c1,0,1.88,.14,2.64,.43,.76,.29,1.35,.73,1.77,1.32,.42,.58,.64,1.31,.64,2.17s-.2,1.58-.59,2.17c-.39,.59-.97,1.04-1.72,1.34-.76,.3-1.68,.46-2.76,.46Zm.04-1.79c.62,0,1.11-.14,1.49-.43,.37-.28,.56-.84,.56-1.68,0-.68-.16-1.19-.49-1.54-.33-.35-.82-.52-1.49-.52-.39,0-.73,.06-1.03,.17-.29,.12-.52,.32-.69,.61s-.25,.71-.25,1.24c0,.58,.14,1.08,.43,1.51,.29,.42,.77,.64,1.46,.64Zm3.65-3.67l-.5-1.32c.14-.19,.42-.4,.85-.64,.43-.23,.93-.35,1.5-.35h1.36v2.31h-3.21Z"></path>
    <path class="cls-1" d="M96.03,111.5c-.52,0-.96-.16-1.31-.48-.36-.32-.54-.74-.54-1.26,0-.35,.1-.67,.29-.96,.19-.29,.44-.52,.76-.7,.31-.17,.65-.26,1-.26,.57,0,1.02,.16,1.35,.49,.33,.33,.49,.74,.49,1.25s-.2,.99-.6,1.36c-.4,.37-.88,.56-1.43,.56Zm-1.44,13.38v-11.69h3.2v11.69h-3.2Z"></path>
    <path class="cls-1" d="M101.25,124.87v-15.6h9.44v2.48h-6.15v4.24h4.64v2.46h-4.64v6.43h-3.29Z"></path>
    <path class="cls-1" d="M114.16,111.5c-.52,0-.96-.16-1.31-.48-.36-.32-.54-.74-.54-1.26,0-.35,.1-.67,.29-.96,.19-.29,.44-.52,.76-.7,.31-.17,.65-.26,1-.26,.57,0,1.02,.16,1.35,.49,.33,.33,.49,.74,.49,1.25s-.2,.99-.6,1.36c-.4,.37-.88,.56-1.43,.56Zm-1.44,13.38v-11.69h3.2v11.69h-3.2Z"></path>
    <path class="cls-1" d="M119.26,124.87v-11.69h2.91l.05,1.31c.27-.22,.61-.45,1.02-.68s.87-.42,1.37-.57c.5-.15,1.01-.24,1.52-.24,1.22-.03,2.11,.3,2.69,.97,.57,.68,.86,1.86,.86,3.55v7.34h-3.21v-6.89c0-.91-.12-1.55-.36-1.91-.24-.36-.7-.53-1.4-.5-.21,0-.45,.04-.71,.11s-.53,.16-.8,.29c-.27,.13-.52,.29-.75,.48v8.42h-3.19Z"></path>
    <path class="cls-1" d="M137.71,125.04c-1.8,0-3.18-.54-4.14-1.61s-1.44-2.55-1.44-4.44c0-1.13,.22-2.15,.66-3.04,.44-.9,1.07-1.6,1.91-2.13s1.85-.79,3.06-.79c.61,0,1.19,.07,1.74,.23s1.05,.42,1.48,.78c.43,.36,.78,.84,1.04,1.43,.26,.59,.4,1.31,.4,2.17,0,.43,0,.82-.02,1.19s-.05,.68-.09,.93h-8.45l.21-1.73h5.38c.04-.57,0-1.07-.09-1.5-.09-.43-.28-.77-.55-1.01-.27-.24-.66-.36-1.16-.36s-.9,.13-1.26,.4-.64,.72-.83,1.37c-.19,.65-.27,1.54-.25,2.67,.03,.76,.18,1.37,.45,1.83,.27,.46,.64,.79,1.1,.99,.46,.2,1.01,.3,1.62,.3,.34,0,.7-.03,1.1-.08,.4-.06,.78-.13,1.13-.23,.36-.09,.63-.19,.82-.29l.54,1.74c-.26,.21-.61,.4-1.07,.58-.45,.18-.96,.32-1.53,.43s-1.16,.16-1.76,.16Z"></path>
    <path class="cls-1" d="M143.29,124.87l4.28-6.21,.05,.69-4.34-6.18h3.53l2.02,3.13,.82,1.38h-.81l.7-1.39,1.94-3.12h3.51l-4.38,6.12v-.81l4.46,6.38h-3.57l-2.11-3.33-.82-1.38h.9l-.68,1.39-1.93,3.32h-3.58Z"></path>
  </g>
</svg>
