<?xml version="1.0" encoding="UTF-8"?>
<svg xmlns="http://www.w3.org/2000/svg" id="_图层_1" data-name="图层 1" viewBox="0 0 205 155">
  <defs>
    <style>
      .cls-1 {
        fill: #f4f4f4;
      }

      .cls-2 {
        fill: #e5e5e5;
      }

      .cls-3 {
        fill: #8c8c8c;
      }

      .cls-4 {
        fill: #141414;
      }

      .cls-5 {
        fill: #393939;
      }

      .cls-6 {
        fill: #3c3c3b;
      }

      .cls-7 {
        fill: #343434;
      }
    </style>
  </defs>
  <g>
    <path class="cls-2" d="M52.74,130.95v-15.6h9.52v2.48h-6.25v3.92h4.74v2.43h-4.74v4.25h6.91v2.53h-10.19Z"></path>
    <path class="cls-2" d="M68.87,131.12c-.71,0-1.3-.12-1.77-.35-.47-.23-.81-.61-1.04-1.12s-.34-1.19-.34-2.03v-6.17h-1.42v-1.71c.52-.15,.93-.29,1.24-.42s.54-.36,.68-.69c.07-.16,.15-.35,.23-.57,.08-.22,.17-.45,.26-.7,.09-.25,.19-.51,.28-.77h1.93v2.67h3.14v2.19h-3.14v4.82c0,.74,.04,1.28,.12,1.62,.08,.34,.21,.56,.4,.65,.19,.09,.46,.14,.82,.14,.18,0,.39-.02,.63-.07,.24-.05,.47-.1,.68-.17,.22-.07,.38-.14,.5-.22l.42,1.8c-.19,.17-.47,.34-.85,.51-.38,.17-.81,.31-1.29,.42-.48,.11-.98,.17-1.48,.17Z"></path>
    <path class="cls-2" d="M74.62,130.95v-17.06h3.2v4.57l-.17,2.4-.1-.29c.26-.22,.59-.45,1-.67,.41-.22,.86-.41,1.35-.57,.49-.15,.99-.24,1.51-.24,1.27-.04,2.21,.32,2.8,1.06,.59,.74,.89,1.93,.89,3.55v7.26h-3.22v-6.89c0-.92-.13-1.56-.4-1.91-.27-.35-.73-.51-1.39-.49-.29,0-.65,.08-1.08,.21-.43,.13-.82,.35-1.19,.66v8.42h-3.2Z"></path>
    <path class="cls-2" d="M93.12,131.12c-1.8,0-3.18-.54-4.14-1.61s-1.44-2.55-1.44-4.44c0-1.13,.22-2.15,.66-3.04,.44-.9,1.07-1.6,1.91-2.13s1.85-.79,3.06-.79c.61,0,1.19,.07,1.74,.23s1.05,.42,1.48,.78c.43,.36,.78,.84,1.04,1.43,.26,.59,.4,1.31,.4,2.17,0,.43,0,.82-.02,1.19s-.05,.68-.09,.93h-8.45l.21-1.73h5.38c.04-.57,0-1.07-.09-1.5-.09-.43-.28-.77-.55-1.01-.27-.24-.66-.36-1.16-.36s-.9,.13-1.26,.4c-.36,.27-.64,.72-.83,1.37-.19,.65-.28,1.54-.25,2.67,.03,.76,.18,1.37,.45,1.83,.27,.46,.64,.79,1.1,.99,.46,.2,1.01,.3,1.62,.3,.34,0,.7-.03,1.1-.08,.4-.06,.78-.13,1.13-.23,.36-.09,.63-.19,.82-.29l.54,1.74c-.26,.21-.61,.4-1.07,.58-.45,.18-.96,.32-1.53,.43s-1.16,.16-1.76,.16Z"></path>
    <path class="cls-2" d="M100.27,130.95v-11.69h2.77l.18,1.83,.25,.56v9.3h-3.2Zm3.01-7.62l-.15-2.25c.13-.34,.36-.66,.69-.96,.34-.3,.74-.55,1.2-.75s.95-.29,1.46-.29c.21,0,.4,.01,.58,.03,.18,.02,.31,.06,.39,.11v3.12c-.1-.06-.25-.13-.45-.19-.2-.06-.51-.09-.92-.09-.5,0-.94,.07-1.3,.21-.36,.14-.67,.32-.92,.51-.25,.2-.44,.38-.58,.54Z"></path>
    <path class="cls-2" d="M114.29,131.12c-1.8,0-3.18-.54-4.14-1.61s-1.44-2.55-1.44-4.44c0-1.13,.22-2.15,.66-3.04,.44-.9,1.07-1.6,1.91-2.13s1.85-.79,3.06-.79c.61,0,1.19,.07,1.74,.23s1.05,.42,1.48,.78c.43,.36,.78,.84,1.04,1.43,.26,.59,.4,1.31,.4,2.17,0,.43,0,.82-.02,1.19s-.05,.68-.09,.93h-8.45l.21-1.73h5.38c.04-.57,0-1.07-.09-1.5-.09-.43-.28-.77-.55-1.01-.27-.24-.66-.36-1.16-.36s-.9,.13-1.26,.4-.64,.72-.83,1.37c-.19,.65-.27,1.54-.25,2.67,.03,.76,.18,1.37,.45,1.83,.27,.46,.64,.79,1.1,.99,.46,.2,1.01,.3,1.62,.3,.34,0,.7-.03,1.1-.08,.4-.06,.78-.13,1.13-.23,.36-.09,.63-.19,.82-.29l.54,1.74c-.26,.21-.61,.4-1.07,.58-.45,.18-.96,.32-1.53,.43s-1.16,.16-1.76,.16Z"></path>
    <path class="cls-2" d="M125.06,131.12c-.81,0-1.47-.12-1.97-.36-.5-.24-.88-.59-1.14-1.03s-.43-.98-.52-1.59c-.09-.61-.14-1.28-.14-2.02v-6.87h3.19v6.91c0,.74,.06,1.29,.19,1.65,.13,.36,.32,.61,.58,.72s.6,.18,1.01,.18c.25,0,.51-.04,.78-.11,.27-.07,.51-.16,.74-.26,.22-.1,.4-.2,.51-.29v-8.81h3.2v11.87h-2.04c-.27,0-.48-.04-.63-.13-.15-.08-.23-.28-.23-.59v-.78l.06,.3c-.29,.22-.64,.43-1.04,.6-.41,.18-.84,.32-1.29,.43-.45,.1-.87,.16-1.27,.16Z"></path>
    <path class="cls-2" d="M134.79,130.95v-11.69h2.91l.05,1.25c.27-.21,.62-.42,1.03-.64,.42-.22,.87-.4,1.36-.55,.49-.15,.99-.23,1.5-.24,.81-.02,1.47,.11,1.98,.39,.52,.28,.9,.75,1.16,1.42,.25,.67,.38,1.57,.38,2.69v7.36h-3.19v-6.89c0-.6-.05-1.08-.15-1.43s-.27-.61-.52-.76c-.25-.15-.6-.22-1.06-.21-.31,0-.67,.07-1.1,.22-.43,.15-.82,.36-1.17,.65v8.42h-3.19Zm10.24-8.37l-.59-1.98c.22-.2,.54-.41,.96-.65,.42-.23,.9-.44,1.44-.61,.55-.17,1.12-.26,1.73-.26,.8,0,1.48,.13,2.03,.4,.55,.27,.96,.74,1.24,1.41,.28,.67,.42,1.57,.42,2.71v7.35h-3.21v-6.9c0-.6-.05-1.08-.14-1.43-.09-.35-.27-.61-.51-.76-.25-.15-.6-.22-1.07-.21-.4,0-.81,.1-1.23,.29-.42,.19-.78,.4-1.07,.64Z"></path>
  </g>
  <g>
    <circle class="cls-1" cx="102.5" cy="56.38" r="32.5"></circle>
    <g id="Layer_1">
      <g id="_1421394342400" data-name=" 1421394342400">
        <g>
          <polygon class="cls-7" points="102.49 31.38 102.16 32.52 102.16 65.58 102.49 65.92 117.84 56.85 102.49 31.38"></polygon>
          <polygon class="cls-3" points="102.49 31.38 87.15 56.85 102.49 65.92 102.49 49.87 102.49 31.38"></polygon>
          <polygon class="cls-6" points="102.49 68.83 102.31 69.06 102.31 80.83 102.49 81.38 117.85 59.76 102.49 68.83"></polygon>
          <polygon class="cls-3" points="102.49 81.38 102.49 68.83 87.15 59.76 102.49 81.38"></polygon>
          <polygon class="cls-4" points="102.49 65.92 117.84 56.85 102.49 49.87 102.49 65.92"></polygon>
          <polygon class="cls-5" points="87.15 56.85 102.49 65.92 102.49 49.87 87.15 56.85"></polygon>
        </g>
      </g>
    </g>
  </g>
</svg>
