<?xml version="1.0" encoding="UTF-8"?>
<svg xmlns="http://www.w3.org/2000/svg" id="_图层_1" data-name="图层 1" viewBox="0 0 205 155">
  <defs>
    <style>
      .cls-1 {
        fill: none;
      }

      .cls-2 {
        fill: #e5e5e5;
      }

      .cls-3 {
        fill: #17e6a1;
      }

      .cls-3, .cls-4 {
        fill-rule: evenodd;
      }

      .cls-4 {
        fill: #2354e6;
      }
    </style>
  </defs>
  <g id="Layer_1">
    <rect class="cls-1" x="70" y="24.29" width="65" height="65"></rect>
    <g id="_2500576017504" data-name=" 2500576017504">
      <path id="Fill-3" class="cls-4" d="M102.5,74.67c-9.87,0-17.88-8-17.88-17.88s8-17.88,17.88-17.88v-14.62c-17.95,0-32.5,14.55-32.5,32.5s14.55,32.5,32.5,32.5,32.5-14.55,32.5-32.5h-14.62c0,9.87-8,17.88-17.88,17.88Z"></path>
      <polygon id="Fill-4" class="cls-3" points="102.5 56.79 120.38 56.79 120.38 38.92 102.5 38.92 102.5 56.79"></polygon>
    </g>
  </g>
  <g>
    <path class="cls-2" d="M78.89,122.07c0-1.4,.2-2.61,.6-3.62,.4-1.01,.95-1.85,1.66-2.5s1.53-1.14,2.47-1.45c.94-.31,1.95-.47,3.02-.47,.78,0,1.41,.04,1.91,.11,.5,.07,.94,.15,1.32,.25,.38,.09,.79,.18,1.22,.26l-.11,2.81c-.45-.23-1-.43-1.67-.6s-1.54-.25-2.62-.25c-.91,0-1.7,.21-2.36,.62-.66,.41-1.17,1.01-1.54,1.78-.36,.77-.55,1.71-.55,2.8s.15,2.05,.45,2.91c.3,.86,.75,1.54,1.35,2.04,.6,.5,1.35,.75,2.25,.75,.56,0,1.06-.04,1.51-.11,.45-.07,.81-.18,1.08-.31v-3.59l.47,.45-2.93-.17v-2.37h5.5v7.49c-.27,0-.55,.07-.86,.18-.3,.11-.66,.24-1.07,.38-.41,.14-.9,.26-1.49,.37-.59,.1-1.31,.16-2.16,.16-1.55,0-2.88-.32-4-.97-1.12-.65-1.98-1.56-2.58-2.75s-.9-2.58-.9-4.17Z"></path>
    <path class="cls-2" d="M97.76,129.97c-.74,0-1.39-.15-1.95-.45s-1-.72-1.31-1.26c-.31-.54-.47-1.17-.47-1.88s.19-1.33,.58-1.84c.39-.51,.92-.91,1.58-1.2,.45-.19,.95-.34,1.5-.44,.54-.11,1.08-.18,1.63-.22s1.05-.06,1.52-.06l.54,.66-.54,1.03c-.25,0-.54,.02-.85,.05-.32,.04-.62,.09-.91,.15-.29,.07-.53,.14-.73,.23-.27,.13-.52,.29-.73,.5-.21,.21-.32,.53-.32,.97,0,.57,.16,.99,.47,1.25s.72,.4,1.22,.4c.26,0,.52-.04,.77-.11,.26-.07,.48-.15,.68-.25,.2-.09,.33-.18,.4-.27l.56,.66-.39,.9c-.32,.28-.75,.54-1.3,.79-.55,.25-1.2,.37-1.95,.37Zm6.28-.17h-3.03v-1.74h-.17v-6.3c0-.59-.16-.99-.47-1.17s-.77-.28-1.35-.28c-.44,0-.9,.04-1.38,.12-.48,.08-.93,.18-1.36,.3s-.78,.26-1.07,.41l-.69-2.02c.24-.14,.61-.3,1.11-.49,.5-.19,1.08-.36,1.73-.5s1.31-.21,1.96-.21c1.08,0,1.97,.13,2.66,.38,.7,.25,1.21,.68,1.55,1.28,.34,.6,.51,1.43,.51,2.5v7.73Z"></path>
    <path class="cls-2" d="M110.73,129.97c-.71,0-1.3-.12-1.77-.35-.47-.23-.81-.61-1.04-1.12s-.34-1.19-.34-2.03v-6.17h-1.42v-1.71c.52-.15,.93-.29,1.24-.42s.54-.36,.68-.69c.07-.16,.15-.35,.23-.57,.08-.22,.17-.45,.26-.7,.09-.25,.18-.51,.28-.77h1.93v2.67h3.14v2.19h-3.14v4.82c0,.74,.04,1.28,.12,1.62,.08,.34,.21,.56,.4,.65,.19,.09,.46,.14,.82,.14,.18,0,.39-.02,.63-.07,.24-.05,.46-.1,.68-.17,.22-.07,.38-.14,.5-.22l.42,1.8c-.19,.17-.47,.34-.85,.51-.38,.17-.81,.31-1.29,.42-.48,.11-.98,.17-1.48,.17Z"></path>
    <path class="cls-2" d="M121.4,129.97c-1.8,0-3.18-.54-4.14-1.61s-1.44-2.55-1.44-4.44c0-1.13,.22-2.15,.66-3.04,.44-.9,1.07-1.6,1.91-2.13s1.85-.79,3.06-.79c.61,0,1.19,.07,1.74,.23s1.05,.42,1.48,.78c.43,.36,.78,.84,1.04,1.43,.26,.59,.4,1.31,.4,2.17,0,.43,0,.82-.02,1.19s-.05,.68-.09,.93h-8.45l.21-1.73h5.38c.04-.57,0-1.07-.09-1.5-.09-.43-.28-.77-.55-1.01-.27-.24-.66-.36-1.16-.36s-.9,.13-1.26,.4-.64,.72-.83,1.37c-.19,.65-.27,1.54-.25,2.67,.03,.76,.18,1.37,.45,1.83,.27,.46,.64,.79,1.1,.99,.46,.2,1.01,.3,1.62,.3,.34,0,.7-.03,1.1-.08,.4-.06,.78-.13,1.13-.23,.36-.09,.63-.19,.82-.29l.54,1.74c-.26,.21-.61,.4-1.07,.58-.45,.18-.96,.32-1.53,.43s-1.16,.16-1.76,.16Z"></path>
  </g>
</svg>
