<?xml version="1.0" encoding="UTF-8"?>
<svg xmlns="http://www.w3.org/2000/svg" id="_图层_1" data-name="图层 1" viewBox="0 0 205 155">
  <defs>
    <style>
      .cls-1 {
        fill: #e5e5e5;
      }

      .cls-2 {
        fill: #1b2143;
      }

      .cls-3 {
        fill: #2ca6e0;
      }
    </style>
  </defs>
  <g>
    <path class="cls-2" d="M109.8,43.89c0-9.33-4.54-17.36-8-19.96,0,0-.27-.15-.24,.23-.28,18.02-9.49,22.9-14.55,29.47-11.68,15.18-.83,31.82,10.24,34.9,6.17,1.73-1.43-3.05-2.41-13.12-1.2-12.15,14.96-21.44,14.96-31.52h0Z"></path>
    <path class="cls-3" d="M115.11,50.03c-.07-.05-.17-.08-.24,.04-.19,2.27-2.51,7.11-5.44,11.57-9.96,15.11-4.29,22.4-1.09,26.32,1.85,2.27,0,0,4.63-2.32,5.72-3.47,9.43-9.47,9.98-16.14,.91-10.74-5.54-17.5-7.83-19.47h0Z"></path>
  </g>
  <g>
    <path class="cls-1" d="M81.9,130.48v-15.6h3.3v6.52h6.12v-6.52h3.28v15.6h-3.28v-6.67h-6.12v6.67h-3.3Z"></path>
    <path class="cls-1" d="M101.21,130.48v-13.08h-4.44v-2.52h12.19v2.52h-4.44v13.08h-3.31Z"></path>
    <path class="cls-1" d="M109.69,130.48l5.02-8.52,.02,1.03-4.96-8.12,3.59-.02,2.3,4.02,1.17,2.07h-.6l1.13-2.07,2.18-4h3.42l-4.91,8.29-.09-.98,5.13,8.28h-3.62l-2.4-4.24-1.2-2.19,.76-.02-1.16,2.21-2.35,4.24h-3.43Z"></path>
  </g>
</svg>
