<?xml version="1.0" encoding="UTF-8"?>
<svg xmlns="http://www.w3.org/2000/svg" id="_图层_1" data-name="图层 1" viewBox="0 0 205 155">
  <defs>
    <style>
      .cls-1 {
        fill: #e5e5e5;
      }

      .cls-2 {
        fill: #5841d8;
      }
    </style>
  </defs>
  <path class="cls-2" d="M103.04,24.58c-22.74,0-41.39,18.36-41.39,41.39v17.78c0,3.21,2.62,5.83,5.83,5.83s5.83-2.62,5.83-5.83v-17.78c0-3.21,2.62-5.83,5.83-5.83s5.83,2.62,5.83,5.83v17.78c0,3.21,2.62,5.83,5.83,5.83s5.83-2.62,5.83-5.83v-17.78c0-3.21,2.62-5.83,5.83-5.83s5.83,2.62,5.83,5.83v17.78c0,3.21,2.62,5.83,5.83,5.83s5.83-2.62,5.83-5.83v-17.78c0-3.21,2.62-5.83,5.83-5.83s5.83,2.62,5.83,5.83v17.78c0,3.21,2.62,5.83,5.83,5.83s5.83-2.62,5.83-5.83v-17.78c1.46-23.03-17.2-41.39-40.22-41.39h0Z"></path>
  <g>
    <path class="cls-1" d="M78.85,118.73l-7.79,8.27,.15-.68,.04,2.03v2.08h-3.14v-17.03h3.14v7.51l-.13,3.55-.49-.47,4.54-5.25h3.69Zm-6.56,6.44l2.12-2.17,4.81,7.43h-3.58l-3.35-5.26Z"></path>
    <path class="cls-1" d="M80.63,130.43v-11.69h2.77l.18,1.83,.25,.56v9.3h-3.2Zm3.01-7.62l-.15-2.25c.13-.34,.36-.66,.69-.96,.34-.3,.73-.55,1.2-.75,.46-.19,.95-.29,1.46-.29,.21,0,.4,.01,.58,.03,.18,.02,.31,.06,.39,.11v3.12c-.1-.06-.25-.13-.45-.19-.2-.06-.51-.09-.92-.09-.5,0-.94,.07-1.3,.21-.36,.14-.67,.32-.92,.51-.25,.2-.44,.38-.58,.54Z"></path>
    <path class="cls-1" d="M92.56,130.6c-.74,0-1.39-.15-1.95-.45s-1-.72-1.31-1.26c-.31-.54-.47-1.17-.47-1.88s.19-1.33,.58-1.84c.39-.51,.92-.91,1.58-1.2,.45-.19,.95-.34,1.5-.44,.54-.11,1.08-.18,1.63-.22s1.05-.06,1.52-.06l.54,.66-.54,1.03c-.25,0-.54,.02-.85,.05-.32,.04-.62,.09-.91,.15-.29,.07-.53,.14-.73,.23-.27,.13-.52,.29-.73,.5-.21,.21-.32,.53-.32,.97,0,.57,.16,.99,.47,1.25s.72,.4,1.22,.4c.26,0,.52-.04,.77-.11,.26-.07,.48-.15,.68-.25,.2-.09,.33-.18,.4-.27l.56,.66-.39,.9c-.32,.28-.75,.54-1.3,.79-.55,.25-1.2,.37-1.95,.37Zm6.28-.17h-3.03v-1.74h-.17v-6.3c0-.59-.16-.99-.47-1.17s-.77-.28-1.35-.28c-.44,0-.9,.04-1.38,.12-.48,.08-.93,.18-1.36,.3s-.78,.26-1.07,.41l-.69-2.02c.24-.14,.61-.3,1.11-.49,.5-.19,1.08-.36,1.73-.5s1.31-.21,1.96-.21c1.08,0,1.97,.13,2.66,.38,.7,.25,1.21,.68,1.55,1.28,.34,.6,.51,1.43,.51,2.5v7.73Z"></path>
    <path class="cls-1" d="M112.7,118.73l-7.79,8.27,.15-.68,.04,2.03v2.08h-3.14v-17.03h3.14v7.51l-.13,3.55-.49-.47,4.54-5.25h3.69Zm-6.56,6.44l2.12-2.17,4.81,7.43h-3.58l-3.35-5.26Z"></path>
    <path class="cls-1" d="M119.19,130.6c-1.8,0-3.18-.54-4.14-1.61s-1.44-2.55-1.44-4.44c0-1.13,.22-2.15,.66-3.04,.44-.9,1.07-1.6,1.91-2.13s1.85-.79,3.06-.79c.61,0,1.19,.07,1.74,.23s1.05,.42,1.48,.78c.43,.36,.78,.84,1.04,1.43,.26,.59,.4,1.31,.4,2.17,0,.43,0,.82-.02,1.19s-.05,.68-.09,.93h-8.45l.21-1.73h5.38c.04-.57,0-1.07-.09-1.5-.09-.43-.28-.77-.55-1.01-.27-.24-.66-.36-1.16-.36s-.9,.13-1.26,.4-.64,.72-.83,1.37c-.19,.65-.27,1.54-.25,2.67,.03,.76,.18,1.37,.45,1.83,.27,.46,.64,.79,1.1,.99,.46,.2,1.01,.3,1.62,.3,.34,0,.7-.03,1.1-.08,.4-.06,.78-.13,1.13-.23,.36-.09,.63-.19,.82-.29l.54,1.74c-.26,.21-.61,.4-1.07,.58-.45,.18-.96,.32-1.53,.43s-1.16,.16-1.76,.16Z"></path>
    <path class="cls-1" d="M126.48,130.43v-11.69h2.91l.05,1.31c.27-.22,.61-.45,1.02-.68s.87-.42,1.37-.57c.5-.15,1.01-.24,1.52-.24,1.22-.03,2.11,.3,2.69,.97,.57,.68,.86,1.86,.86,3.55v7.34h-3.21v-6.89c0-.91-.12-1.55-.36-1.91-.24-.36-.7-.53-1.4-.5-.21,0-.45,.04-.71,.11s-.53,.16-.8,.29c-.27,.13-.52,.29-.75,.48v8.42h-3.19Z"></path>
  </g>
</svg>
