<?xml version="1.0" encoding="UTF-8"?>
<svg xmlns="http://www.w3.org/2000/svg" id="_图层_1" data-name="图层 1" viewBox="0 0 354 100">
  <defs>
    <style>
      .cls-1 {
        fill: #00fcff;
      }
    </style>
  </defs>
  <g>
    <path class="cls-1" d="M66.19,74.41c12.97-7.52,22.24-16.96,26.52-27.02,1.76-7.23,2.77-15.02,2.77-23.25,0-1.15-.05-2.25-.16-3.3-.75,12.16-16.47,27.45-37.27,37.45-25.08,12.05-43.9,15.29-52.3,6.1,2.92,5.76,6.82,11.57,11.26,16.79,10.32,9.18,27.35,5.89,49.17-6.77h0Z"></path>
    <path class="cls-1" d="M55.12,49.67c23.66-11.41,40.14-27.65,37.27-38.41C87.67,3.11,78.13,0,67.89,0,37.55,0,.31,20,.31,45.52c0,3.28,.72,6.95,2.02,10.79,6.92,9.19,28.08,5.28,52.8-6.65Zm-1.99,36.17c-16.64,6.75-26.16,4.6-31.43,.39l-.08-.07c8.15,8.13,17.43,13.84,25.57,13.84,14.26,0,33.78-17.29,43.02-44.12-5.21,9.68-16.38,21.58-37.09,29.95Z"></path>
  </g>
  <g>
    <path class="cls-1" d="M124.35,14.65h14.16V50.78L175.36,14.65h18.13l-34.39,33.32,34.39,36.49h-18.85l-25.73-26.62-10.41,10.05v16.57h-14.16V14.65Z"></path>
    <path class="cls-1" d="M197.82,14.65h14.16V53.1c0,3.16,.43,5.96,1.3,8.42,.86,2.46,2.15,4.53,3.86,6.23,1.71,1.7,3.83,2.98,6.36,3.86s5.48,1.32,8.84,1.32,6.28-.44,8.82-1.32,4.67-2.17,6.39-3.86c1.71-1.7,3-3.77,3.86-6.23,.86-2.46,1.3-5.26,1.3-8.42V14.65h14.16V54.8c0,4.59-.77,8.75-2.32,12.51s-3.8,6.97-6.74,9.65-6.56,4.75-10.83,6.21-9.15,2.19-14.63,2.19-10.35-.73-14.63-2.19c-4.27-1.46-7.88-3.53-10.83-6.21s-5.2-5.9-6.74-9.65c-1.55-3.75-2.32-7.92-2.32-12.51V14.65Z"></path>
    <path class="cls-1" d="M284.11,14.65h37.29c4.56,0,8.52,.48,11.9,1.45s6.19,2.3,8.42,4,3.89,3.71,4.98,6.05,1.63,4.86,1.63,7.57c0,4.44-1.4,8.32-4.2,11.66,3.22,1.91,5.61,4.38,7.19,7.41,1.58,3.04,2.37,6.49,2.37,10.36,0,3.25-.54,6.18-1.63,8.8s-2.74,4.86-4.96,6.72-5.02,3.29-8.4,4.29c-3.38,1-7.36,1.5-11.95,1.5h-42.65V14.65Zm42.74,26.8c1.22,0,2.41,.04,3.57,.13,1.99-1.91,2.99-4.08,2.99-6.52s-.99-4.49-2.97-5.87-4.88-2.08-8.69-2.08h-23.49v14.34h28.58Zm.27,30.68c3.81,0,6.71-.82,8.69-2.46s2.97-3.95,2.97-6.92-.99-5.3-2.97-6.97-4.88-2.5-8.69-2.5h-28.85v18.85h28.85Z"></path>
  </g>
</svg>
