<?xml version="1.0" encoding="UTF-8"?>
<svg xmlns="http://www.w3.org/2000/svg" id="_图层_1" data-name="图层 1" viewBox="0 0 205 155">
  <defs>
    <style>
      .cls-1 {
        fill: #00bc8d;
      }

      .cls-2 {
        fill: #e5e5e5;
      }
    </style>
  </defs>
  <path class="cls-1" d="M122.81,64.38l-12.18,12.12-19.44-19.23,19.41-19.2,12.22,12.16c2.17,2.15,5.67,2.15,7.81-.02s2.14-5.67-.02-7.81l-16.06-15.98c-2.17-2.15-5.67-2.14-7.81,.02,0,0-.39,.33-.56,.5l-22.34,22.1v-13.21c0-3.05-2.48-5.52-5.53-5.52s-5.52,2.48-5.53,5.52v42.94c0,3.05,2.48,5.53,5.53,5.53s5.53-2.48,5.53-5.53v-13.24l22.34,22.1c.1,.1,.47,.47,.56,.56,2.15,2.16,5.65,2.17,7.81,.02l16.06-15.98c2.16-2.15,2.17-5.65,.02-7.81-2.16-2.16-5.66-2.17-7.81-.02h0Z"></path>
  <g>
    <path class="cls-2" d="M68.47,130.64v-15.6h3.22v7.1l5.43-7.1h3.64l-6.02,7.61-.65,.55-2.88,3.36,.47-2.18v6.27h-3.22Zm8.19-1.21c-.27-.5-.56-1.01-.87-1.53s-.62-1.02-.94-1.53c-.32-.5-.63-.99-.94-1.46s-.6-.91-.87-1.33l1.17-1.11,1.01-1.14c.17,.24,.41,.59,.72,1.06,.3,.46,.65,1,1.03,1.6,.38,.6,.78,1.23,1.18,1.88,.41,.65,.8,1.29,1.18,1.92,.38,.63,.72,1.2,1.02,1.72,.08,.13,.15,.25,.23,.38s.15,.25,.22,.38c.07,.13,.15,.25,.23,.38h-3.71c-.09-.14-.18-.3-.26-.47-.08-.17-.21-.42-.38-.74Z"></path>
    <path class="cls-2" d="M86.46,130.8c-.81,0-1.47-.12-1.97-.36s-.88-.59-1.14-1.03c-.26-.45-.43-.98-.52-1.59-.09-.61-.14-1.28-.14-2.02v-6.87h3.19v6.91c0,.74,.06,1.29,.19,1.65,.13,.36,.32,.61,.58,.72,.26,.12,.6,.18,1.01,.18,.25,0,.51-.04,.78-.11,.27-.07,.51-.16,.74-.26,.22-.1,.4-.2,.51-.29v-8.81h3.2v11.87h-2.04c-.27,0-.48-.04-.64-.13s-.23-.28-.23-.59v-.78l.06,.3c-.29,.22-.64,.43-1.04,.6-.41,.18-.84,.32-1.29,.43-.45,.1-.87,.16-1.27,.16Z"></path>
    <path class="cls-2" d="M95.31,124.91c0-1.15,.21-2.18,.63-3.11,.42-.92,1.06-1.66,1.92-2.2,.86-.54,1.95-.81,3.27-.81,.76,0,1.42,.06,1.98,.19,.56,.13,.93,.26,1.12,.39l-.4,2.45c-.26-.16-.58-.29-.97-.39-.39-.1-.87-.15-1.44-.15-.46,0-.9,.1-1.34,.32-.44,.21-.8,.56-1.09,1.04s-.45,1.13-.47,1.94c-.02,.88,.1,1.59,.35,2.15,.26,.56,.61,.97,1.05,1.23,.44,.26,.94,.39,1.49,.39s1.03-.06,1.48-.17,.81-.23,1.06-.36l.47,1.96c-.34,.34-.84,.59-1.52,.76-.68,.17-1.39,.26-2.14,.26-1.21,0-2.22-.26-3.02-.77s-1.41-1.22-1.82-2.11c-.41-.89-.61-1.89-.61-3.01Z"></path>
    <path class="cls-2" d="M111.32,130.8c-1.02,0-1.89-.17-2.6-.5-.71-.33-1.29-.79-1.73-1.37s-.75-1.25-.95-2c-.2-.75-.29-1.55-.28-2.39,.02-1.25,.28-2.3,.78-3.15,.5-.85,1.18-1.5,2.05-1.94,.87-.44,1.85-.66,2.95-.66,1.37,0,2.47,.29,3.29,.86,.82,.57,1.41,1.34,1.76,2.28s.53,1.98,.5,3.09c-.01,1.25-.27,2.31-.77,3.17s-1.18,1.51-2.04,1.95c-.86,.44-1.85,.66-2.96,.66Zm.08-2.24c.83,0,1.44-.3,1.82-.93s.57-1.54,.57-2.74c0-.71-.08-1.35-.23-1.93-.15-.58-.4-1.05-.74-1.4-.34-.35-.79-.53-1.35-.54-.84,0-1.45,.3-1.83,.92-.38,.62-.57,1.51-.57,2.68,0,.71,.08,1.37,.23,1.97,.15,.6,.4,1.08,.74,1.43,.34,.36,.79,.54,1.36,.54Z"></path>
    <path class="cls-2" d="M121.01,117.26c-.52,0-.96-.16-1.31-.48-.36-.32-.54-.74-.54-1.26,0-.35,.1-.67,.29-.96,.19-.29,.44-.52,.76-.7,.31-.17,.65-.26,1-.26,.57,0,1.02,.16,1.35,.49,.33,.33,.49,.74,.49,1.25s-.2,.99-.6,1.36c-.4,.37-.88,.56-1.43,.56Zm-1.44,13.38v-11.69h3.2v11.69h-3.2Z"></path>
    <path class="cls-2" d="M126.11,130.64v-11.69h2.91l.05,1.31c.27-.22,.61-.45,1.02-.68s.87-.42,1.37-.57c.5-.15,1.01-.24,1.52-.24,1.22-.03,2.11,.3,2.69,.97,.57,.68,.86,1.86,.86,3.55v7.34h-3.21v-6.89c0-.91-.12-1.55-.36-1.91-.24-.36-.7-.53-1.4-.5-.21,0-.45,.04-.71,.11s-.53,.16-.8,.29c-.27,.13-.52,.29-.75,.48v8.42h-3.19Z"></path>
  </g>
</svg>
