<?xml version="1.0" encoding="UTF-8"?>
<svg xmlns="http://www.w3.org/2000/svg" id="_图层_1" data-name="图层 1" viewBox="0 0 205 155">
  <defs>
    <style>
      .cls-1 {
        fill: #e5e5e5;
      }
    </style>
  </defs>
  <g>
    <path class="cls-1" d="M76.12,120.27v-15.6h3.25v12.97h5.64v2.64h-8.89Z"></path>
    <path class="cls-1" d="M88.76,106.9c-.52,0-.96-.16-1.31-.48-.36-.32-.54-.74-.54-1.26,0-.35,.1-.67,.29-.96,.19-.29,.44-.52,.76-.7,.31-.17,.65-.26,1-.26,.57,0,1.02,.16,1.35,.49,.33,.33,.49,.74,.49,1.25s-.2,.99-.6,1.36c-.4,.37-.88,.56-1.43,.56Zm-1.44,13.38v-11.69h3.2v11.69h-3.2Z"></path>
    <path class="cls-1" d="M93.86,120.27v-11.69h2.91l.05,1.31c.27-.22,.61-.45,1.02-.68,.41-.23,.87-.42,1.37-.57,.5-.15,1.01-.24,1.52-.24,1.22-.03,2.11,.3,2.69,.97,.57,.68,.86,1.86,.86,3.55v7.34h-3.21v-6.89c0-.91-.12-1.55-.36-1.91s-.7-.53-1.4-.5c-.21,0-.45,.04-.71,.11-.26,.07-.53,.16-.8,.29-.27,.13-.52,.29-.75,.48v8.42h-3.19Z"></path>
    <path class="cls-1" d="M112.31,120.44c-1.8,0-3.18-.54-4.14-1.61s-1.44-2.55-1.44-4.44c0-1.13,.22-2.15,.66-3.04,.44-.9,1.07-1.6,1.91-2.13s1.85-.79,3.06-.79c.61,0,1.19,.07,1.74,.23,.55,.16,1.05,.42,1.48,.78,.43,.36,.78,.84,1.04,1.43,.26,.59,.4,1.31,.4,2.17,0,.43,0,.82-.02,1.19s-.04,.68-.09,.93h-8.45l.21-1.73h5.38c.04-.57,0-1.07-.09-1.5-.09-.43-.28-.77-.55-1.01-.27-.24-.66-.36-1.15-.36s-.9,.13-1.27,.4c-.36,.27-.64,.72-.83,1.37-.19,.65-.27,1.54-.25,2.67,.03,.76,.18,1.37,.45,1.83,.27,.46,.64,.79,1.1,.99,.47,.2,1.01,.3,1.62,.3,.34,0,.7-.03,1.1-.08s.78-.13,1.13-.23c.36-.09,.63-.19,.82-.29l.54,1.74c-.26,.21-.61,.4-1.06,.58-.45,.18-.96,.32-1.53,.43s-1.16,.16-1.76,.16Z"></path>
    <path class="cls-1" d="M122.6,120.44c-.74,0-1.39-.15-1.95-.45-.56-.3-1-.72-1.31-1.26-.31-.54-.47-1.17-.47-1.88s.19-1.33,.58-1.84c.39-.51,.92-.91,1.58-1.2,.46-.19,.95-.34,1.5-.44,.54-.11,1.08-.18,1.63-.22,.54-.04,1.05-.06,1.52-.06l.54,.66-.54,1.03c-.25,0-.54,.02-.85,.05-.32,.04-.62,.09-.91,.15-.29,.07-.53,.14-.73,.23-.27,.13-.52,.29-.73,.5s-.32,.53-.32,.97c0,.57,.16,.99,.47,1.25,.32,.27,.72,.4,1.22,.4,.26,0,.52-.04,.77-.11,.25-.07,.48-.15,.68-.25,.2-.09,.33-.18,.4-.27l.56,.66-.39,.9c-.32,.28-.75,.54-1.3,.79s-1.2,.37-1.95,.37Zm6.28-.17h-3.03v-1.74h-.17v-6.3c0-.59-.16-.99-.47-1.17-.32-.19-.77-.28-1.35-.28-.44,0-.9,.04-1.38,.12-.48,.08-.93,.18-1.36,.3-.43,.13-.78,.26-1.07,.41l-.69-2.02c.24-.14,.61-.3,1.11-.49,.5-.19,1.08-.36,1.73-.5s1.31-.21,1.96-.21c1.08,0,1.96,.13,2.66,.38s1.21,.68,1.55,1.28c.34,.6,.51,1.43,.51,2.5v7.73Z"></path>
  </g>
  <g>
    <polygon class="cls-1" points="120.43 71.14 88.17 71.14 88.17 38.88 80.45 38.88 80.45 71.14 80.45 78.86 80.45 78.86 88.17 78.86 88.17 78.86 120.43 78.86 120.43 71.14"></polygon>
    <circle class="cls-1" cx="118.62" cy="40.48" r="5.92"></circle>
  </g>
</svg>
