<?xml version="1.0" encoding="UTF-8"?>
<svg xmlns="http://www.w3.org/2000/svg" id="_图层_1" data-name="图层 1" viewBox="0 0 205 155">
  <defs>
    <style>
      .cls-1 {
        fill: #e5e5e5;
      }

      .cls-2 {
        fill: #fff;
        fill-rule: evenodd;
      }
    </style>
  </defs>
  <g>
    <path class="cls-1" d="M66.43,130.55l1.72-15.6h4.49l2.26,8.34,.76,3.52,.63-3.52,2.09-8.34h4.33l1.91,15.6h-3.2l-.77-8.75-.25-4.42-1.02,4.49-2.52,8.79h-2.6l-2.69-8.79-1.07-4.49-.29,4.42-.69,8.75h-3.08Z"></path>
    <path class="cls-1" d="M90.2,130.72c-.74,0-1.39-.15-1.95-.45-.56-.3-1-.72-1.31-1.26-.31-.54-.47-1.17-.47-1.88s.19-1.33,.58-1.84c.39-.51,.92-.91,1.58-1.2,.46-.19,.95-.34,1.5-.44,.54-.11,1.08-.18,1.63-.22,.54-.04,1.05-.06,1.52-.06l.54,.66-.54,1.03c-.25,0-.54,.02-.85,.05-.32,.04-.62,.09-.91,.15-.29,.07-.53,.14-.73,.23-.27,.13-.52,.29-.73,.5s-.32,.53-.32,.97c0,.57,.16,.99,.47,1.25,.31,.27,.72,.4,1.22,.4,.26,0,.52-.04,.77-.11,.26-.07,.48-.15,.68-.25,.2-.09,.33-.18,.4-.27l.56,.66-.39,.9c-.32,.28-.75,.54-1.3,.79-.55,.25-1.2,.37-1.95,.37Zm6.28-.17h-3.03v-1.74h-.17v-6.3c0-.59-.16-.99-.47-1.17-.32-.19-.77-.28-1.35-.28-.44,0-.9,.04-1.38,.12-.48,.08-.93,.18-1.36,.3s-.78,.26-1.07,.41l-.69-2.02c.24-.14,.61-.3,1.11-.49,.5-.19,1.08-.36,1.73-.5,.65-.14,1.31-.21,1.96-.21,1.08,0,1.97,.13,2.66,.38s1.21,.68,1.55,1.28c.34,.6,.51,1.43,.51,2.5v7.73Z"></path>
    <path class="cls-1" d="M99.63,130.55v-11.69h2.91l.05,1.31c.27-.22,.61-.45,1.02-.68,.41-.23,.87-.42,1.37-.57,.5-.15,1.01-.24,1.52-.24,1.22-.03,2.11,.3,2.69,.97,.57,.68,.86,1.86,.86,3.55v7.34h-3.21v-6.89c0-.91-.12-1.55-.36-1.91-.24-.36-.7-.53-1.4-.5-.21,0-.45,.04-.71,.11s-.53,.16-.8,.29c-.27,.13-.52,.29-.75,.48v8.42h-3.19Z"></path>
    <path class="cls-1" d="M116.74,130.72c-.71,0-1.3-.12-1.77-.35s-.81-.61-1.04-1.12c-.23-.51-.34-1.19-.34-2.03v-6.17h-1.42v-1.71c.52-.15,.93-.29,1.24-.42s.54-.36,.68-.69c.07-.16,.15-.35,.23-.57,.08-.22,.17-.45,.26-.7s.19-.51,.28-.77h1.93v2.67h3.14v2.19h-3.14v4.82c0,.74,.04,1.28,.12,1.62s.21,.56,.4,.65c.19,.09,.46,.14,.82,.14,.18,0,.39-.02,.63-.07,.24-.05,.47-.1,.68-.17,.22-.07,.38-.14,.5-.22l.42,1.8c-.19,.17-.47,.34-.85,.51-.38,.17-.81,.31-1.29,.42-.48,.11-.98,.17-1.48,.17Z"></path>
    <path class="cls-1" d="M122.5,130.55v-17.06h3.21v17.06h-3.21Z"></path>
    <path class="cls-1" d="M133.85,130.72c-1.8,0-3.18-.54-4.14-1.61s-1.44-2.55-1.44-4.44c0-1.13,.22-2.15,.66-3.04,.44-.9,1.07-1.6,1.91-2.13s1.85-.79,3.06-.79c.61,0,1.19,.07,1.74,.23s1.05,.42,1.48,.78c.43,.36,.78,.84,1.04,1.43,.26,.59,.4,1.31,.4,2.17,0,.43,0,.82-.02,1.19s-.05,.68-.09,.93h-8.45l.21-1.73h5.38c.04-.57,0-1.07-.09-1.5-.09-.43-.28-.77-.55-1.01-.27-.24-.66-.36-1.16-.36s-.9,.13-1.26,.4-.64,.72-.83,1.37c-.19,.65-.27,1.54-.25,2.67,.03,.76,.18,1.37,.45,1.83,.27,.46,.64,.79,1.1,.99,.46,.2,1.01,.3,1.62,.3,.34,0,.7-.03,1.1-.08,.4-.06,.78-.13,1.13-.23,.36-.09,.63-.19,.82-.29l.54,1.74c-.26,.21-.61,.4-1.07,.58-.45,.18-.96,.32-1.53,.43s-1.16,.16-1.76,.16Z"></path>
  </g>
  <g>
    <circle cx="102.5" cy="56.78" r="32.5"></circle>
    <path class="cls-2" d="M105.09,40.26l1.29-8.32c-1.28-.2-2.58-.3-3.89-.3h-.02v16.97h.02c.72,0,1.42,.09,2.1,.27l2.2-8.27c-.56-.15-1.13-.27-1.7-.36h0Zm-6.68,9.45l-4.22-7.27h0c-.5,.29-.98,.6-1.45,.94l-5.04-6.91c1.06-.77,2.19-1.47,3.36-2.07l3.84,7.49c.78-.4,1.59-.73,2.42-1.01l-2.61-8c1.25-.41,2.54-.72,3.84-.93l1.34,8.45c-.57,.09-1.13,.21-1.69,.36l2.19,8.12c-.69,.18-1.35,.46-1.96,.82Zm-18.32-4.32l7.62,3.88c-.39,.77-.73,1.58-.99,2.4l-8.14-2.63c.4-1.25,.91-2.48,1.51-3.65Zm36.76,3.07l-7.27,4.23c.36,.62,.63,1.28,.82,1.96l8.12-2.19c.15,.56,.27,1.12,.36,1.69l8.45-1.35c-.21-1.3-.52-2.59-.93-3.84l-8,2.62c-.27-.83-.61-1.64-1.01-2.42l7.49-3.84c-.6-1.17-1.29-2.29-2.07-3.35l-6.91,5.05c.34,.46,.65,.95,.94,1.45h0Zm-2.97-14.1h0s0,0,0,0h0Zm-3.65-1.5c1.25,.4,2.48,.91,3.65,1.51l-3.88,7.63c-.77-.39-1.58-.73-2.4-.99l2.63-8.14Zm.61,9.43l-4.27,7.41c.62,.36,1.19,.79,1.7,1.3l11.98-12.02c-.93-.93-1.94-1.79-3-2.56l-4.94,6.81c-.47-.34-.96-.66-1.46-.95Zm-15.42,10.42l-7.41-4.28h0c.29-.5,.61-.99,.95-1.46l-6.81-4.94c.77-1.06,1.63-2.07,2.56-3l12.02,11.98c-.51,.51-.94,1.08-1.3,1.7Zm-9.08-.23l8.27,2.2h0c-.18,.68-.27,1.39-.27,2.11h-16.97c0-1.31,.1-2.62,.3-3.9l8.32,1.3c.09-.57,.21-1.14,.36-1.7Zm30.95,11.82l7.62,3.88c.6-1.17,1.1-2.4,1.51-3.65l-8.14-2.63c-.27,.82-.6,1.63-.99,2.4Zm-10.7-.44l4.22,7.27h0c.5-.29,.98-.6,1.45-.94l5.04,6.91c-1.06,.77-2.19,1.47-3.36,2.07l-3.84-7.49c-.78,.4-1.59,.73-2.42,1.01l2.61,8c-1.25,.41-2.54,.72-3.84,.92l-1.34-8.45c.57-.09,1.13-.21,1.69-.36l-2.19-8.12c.69-.18,1.35-.46,1.96-.82Zm-18.43,1.25l7.27-4.23c-.36-.62-.63-1.28-.82-1.96l-8.12,2.19c-.15-.56-.27-1.12-.36-1.69l-8.45,1.35c.21,1.3,.52,2.59,.93,3.84l8-2.62c.27,.83,.61,1.64,1.01,2.42l-7.49,3.84c.6,1.17,1.29,2.29,2.07,3.35l6.91-5.05c-.34-.46-.65-.95-.94-1.45h0Zm2.97,14.1h0s0,0,0,0h0Zm0,0c1.17,.6,2.4,1.1,3.65,1.51l2.63-8.14c-.82-.26-1.63-.6-2.4-.99l-3.88,7.63Zm3.04-7.92h0s0,0,0,0h0Zm0,0l4.27-7.41c-.62-.36-1.19-.79-1.7-1.3l-11.98,12.02c.93,.93,1.94,1.79,3,2.56l4.94-6.81c.47,.34,.96,.66,1.46,.95Zm15.42-10.42l7.41,4.27h0c-.29,.5-.61,.99-.95,1.46l6.81,4.94c-.77,1.06-1.63,2.07-2.56,3l-12.01-11.98c.51-.51,.94-1.08,1.3-1.7Zm-9.19,3.82h0s0,0,0,0h0Zm0,0l-2.2,8.27c.56,.15,1.13,.27,1.7,.36l-1.29,8.32c1.28,.2,2.58,.3,3.89,.3h.02v-16.97h-.02c-.71,0-1.42-.09-2.1-.27Zm10-5.79c.18-.68,.27-1.39,.27-2.11h16.97c0,1.31-.1,2.62-.3,3.9l-8.32-1.3c-.09,.57-.21,1.14-.36,1.7l-8.27-2.2Z"></path>
  </g>
</svg>
