<?xml version="1.0" encoding="UTF-8"?>
<svg xmlns="http://www.w3.org/2000/svg" id="_图层_1" data-name="图层 1" viewBox="0 0 205 155">
  <defs>
    <style>
      .cls-1 {
        fill: #e5e5e5;
      }
    </style>
  </defs>
  <g>
    <path class="cls-1" d="M78.61,130.04v-15.6h3.04l5.85,9.23,2.04,4.06h-.72l-.47-5.24v-8.05h3v15.6h-3.25l-5.59-8.95-2.34-4.62h.88l.55,5.68v7.89h-2.98Z"></path>
    <path class="cls-1" d="M99.62,130.21c-1.8,0-3.18-.54-4.14-1.61s-1.44-2.55-1.44-4.44c0-1.13,.22-2.15,.66-3.04,.44-.9,1.07-1.6,1.91-2.13s1.85-.79,3.06-.79c.61,0,1.19,.07,1.74,.23,.55,.16,1.05,.42,1.48,.78,.43,.36,.78,.84,1.04,1.43,.26,.59,.4,1.31,.4,2.17,0,.43,0,.82-.02,1.19-.01,.36-.05,.68-.09,.93h-8.45l.21-1.73h5.38c.04-.57,0-1.07-.09-1.5-.09-.43-.28-.77-.55-1.01-.27-.24-.66-.36-1.16-.36s-.9,.13-1.26,.4c-.36,.27-.64,.72-.83,1.37s-.27,1.54-.25,2.67c.03,.76,.18,1.37,.45,1.83,.27,.46,.64,.79,1.1,.99,.47,.2,1.01,.3,1.62,.3,.34,0,.7-.03,1.1-.08,.4-.06,.78-.13,1.13-.23,.36-.09,.63-.19,.82-.29l.54,1.74c-.26,.21-.61,.4-1.07,.58-.45,.18-.96,.32-1.53,.43-.57,.11-1.16,.16-1.76,.16Z"></path>
    <path class="cls-1" d="M109.91,130.21c-.74,0-1.39-.15-1.95-.45-.56-.3-1-.72-1.31-1.26-.31-.54-.47-1.17-.47-1.88s.19-1.33,.58-1.84c.39-.51,.92-.91,1.58-1.2,.45-.19,.95-.34,1.5-.44,.54-.11,1.08-.18,1.63-.22,.54-.04,1.05-.06,1.52-.06l.54,.66-.54,1.03c-.25,0-.54,.02-.85,.05-.32,.04-.62,.09-.91,.15-.29,.07-.53,.14-.73,.23-.27,.13-.52,.29-.73,.5-.21,.21-.32,.53-.32,.97,0,.57,.16,.99,.47,1.25,.32,.27,.72,.4,1.22,.4,.26,0,.52-.04,.77-.11,.25-.07,.48-.15,.68-.25,.2-.09,.33-.18,.4-.27l.56,.66-.39,.9c-.32,.28-.75,.54-1.3,.79s-1.2,.37-1.95,.37Zm6.28-.17h-3.03v-1.74h-.17v-6.3c0-.59-.16-.99-.47-1.17-.31-.19-.77-.28-1.35-.28-.44,0-.9,.04-1.38,.12-.48,.08-.93,.18-1.36,.3s-.78,.26-1.07,.41l-.69-2.02c.24-.14,.61-.3,1.11-.49,.5-.19,1.08-.36,1.73-.5,.65-.14,1.31-.21,1.96-.21,1.08,0,1.96,.13,2.66,.38,.7,.25,1.21,.68,1.55,1.28,.34,.6,.51,1.43,.51,2.5v7.73Z"></path>
    <path class="cls-1" d="M119.2,130.04v-11.69h2.77l.18,1.83,.25,.56v9.3h-3.2Zm3.01-7.62l-.15-2.25c.13-.34,.36-.66,.69-.96,.34-.3,.74-.55,1.2-.75s.95-.29,1.46-.29c.21,0,.4,.01,.58,.03,.18,.02,.31,.06,.39,.11v3.12c-.1-.06-.25-.13-.45-.19-.2-.06-.51-.09-.92-.09-.5,0-.94,.07-1.3,.21-.36,.14-.67,.32-.92,.51-.25,.2-.44,.38-.58,.54Z"></path>
  </g>
  <path class="cls-1" d="M122.09,28.11l-13.56,20.13c-.94,1.37,.87,3.03,2.16,1.88l13.35-11.61c.36-.29,.87-.07,.87,.43v36.29c0,.5-.65,.72-.94,.36L83.56,27.24c-1.3-1.59-3.17-2.45-5.27-2.45h-1.44c-3.75,0-6.85,3.1-6.85,6.93v51.08c0,3.82,3.1,6.93,6.93,6.93,2.38,0,4.62-1.23,5.92-3.32l13.56-20.13c.94-1.37-.87-3.03-2.16-1.88l-13.35,11.54c-.36,.29-.87,.07-.87-.43V39.29c0-.5,.65-.72,.94-.36l40.4,48.34c1.3,1.59,3.25,2.45,5.27,2.45h1.44c3.82,0,6.93-3.1,6.93-6.93V31.72c0-3.82-3.1-6.93-6.93-6.93-2.45,0-4.69,1.23-5.99,3.32Z"></path>
</svg>
