<?xml version="1.0" encoding="UTF-8"?>
<svg xmlns="http://www.w3.org/2000/svg" id="_图层_1" data-name="图层 1" viewBox="0 0 205 155">
  <defs>
    <style>
      .cls-1 {
        fill: #f4f4f4;
      }

      .cls-2 {
        fill: #e5e5e5;
      }
    </style>
  </defs>
  <g>
    <path class="cls-1" d="M112.53,45.44h-20.07c-.85,0-1.54,.65-1.54,1.44v18.78c0,.8,.69,1.44,1.54,1.44h20.07c.85,0,1.54-.65,1.54-1.44v-18.78c0-.8-.69-1.44-1.54-1.44h0Z"></path>
    <path class="cls-1" d="M89.38,23.77h-20.07c-.85,0-1.54,.65-1.54,1.45v18.78c0,.8,.69,1.44,1.54,1.44h20.07c.85,0,1.54-.65,1.54-1.44V25.21c0-.8-.69-1.44-1.54-1.44h0Z"></path>
    <path class="cls-1" d="M135.69,23.77h-20.07c-.85,0-1.54,.65-1.54,1.45v18.78c0,.8,.69,1.44,1.54,1.44h20.07c.85,0,1.54-.65,1.54-1.44V25.21c0-.8-.69-1.44-1.54-1.44h0Z"></path>
    <path class="cls-1" d="M89.38,67.1h-20.07c-.85,0-1.54,.65-1.54,1.44v18.78c0,.8,.69,1.44,1.54,1.44h20.07c.85,0,1.54-.65,1.54-1.44v-18.78c0-.8-.69-1.44-1.54-1.44h0Z"></path>
    <path class="cls-1" d="M135.69,67.1h-20.07c-.85,0-1.54,.65-1.54,1.44v18.78c0,.8,.69,1.44,1.54,1.44h20.07c.85,0,1.54-.65,1.54-1.44v-18.78c0-.8-.69-1.44-1.54-1.44h0Z"></path>
  </g>
  <g>
    <path class="cls-2" d="M87.84,130.77c-1.5,.03-2.79-.29-3.86-.96-1.08-.67-1.9-1.61-2.46-2.83-.56-1.22-.83-2.64-.8-4.27,.04-1.8,.38-3.27,1.03-4.42,.65-1.15,1.53-2.01,2.64-2.57,1.11-.56,2.36-.85,3.76-.88,1.43-.03,2.68,.28,3.72,.93s1.85,1.57,2.4,2.77c.56,1.2,.82,2.62,.78,4.25-.04,1.8-.36,3.28-.99,4.46s-1.47,2.05-2.54,2.62-2.3,.88-3.69,.91Zm.06-2.42c1.17,0,2.1-.46,2.78-1.38,.69-.92,1.03-2.35,1.03-4.31,0-1.02-.13-1.94-.4-2.75-.27-.81-.67-1.45-1.21-1.93s-1.21-.71-2.03-.71c-.73,0-1.4,.18-2,.55-.61,.36-1.09,.95-1.45,1.76-.36,.81-.55,1.89-.55,3.23,0,1.03,.14,1.96,.43,2.79,.29,.83,.71,1.5,1.28,1.99s1.27,.74,2.12,.74Z"></path>
    <path class="cls-2" d="M97.74,130.6v-15.6h3.22v7.1l5.43-7.1h3.64l-6.02,7.61-.65,.55-2.88,3.36,.47-2.18v6.27h-3.22Zm8.19-1.21c-.27-.5-.56-1.01-.87-1.53s-.62-1.02-.94-1.53c-.32-.5-.63-.99-.94-1.46s-.6-.91-.87-1.33l1.17-1.11,1.01-1.14c.17,.24,.41,.59,.72,1.06,.3,.46,.65,1,1.03,1.6,.38,.6,.78,1.23,1.18,1.88,.41,.65,.8,1.29,1.18,1.92,.38,.63,.72,1.2,1.02,1.72,.08,.13,.15,.25,.23,.38s.15,.25,.22,.38c.07,.13,.15,.25,.23,.38h-3.71c-.09-.14-.18-.3-.26-.47-.08-.17-.21-.42-.38-.74Z"></path>
    <path class="cls-2" d="M110.87,130.6l5.02-8.52,.02,1.03-4.96-8.12,3.59-.02,2.3,4.02,1.17,2.07h-.6l1.13-2.07,2.18-4h3.42l-4.91,8.29-.09-.98,5.13,8.28h-3.62l-2.4-4.24-1.2-2.19,.76-.02-1.16,2.21-2.35,4.24h-3.43Z"></path>
  </g>
</svg>
