<?xml version="1.0" encoding="UTF-8"?>
<svg xmlns="http://www.w3.org/2000/svg" id="_图层_1" data-name="图层 1" viewBox="0 0 205 155">
  <defs>
    <style>
      .cls-1 {
        fill: #fff;
      }

      .cls-2 {
        fill: #ff0420;
      }

      .cls-3 {
        fill: #e5e5e5;
      }
    </style>
  </defs>
  <g>
    <circle class="cls-2" cx="102.21" cy="54.48" r="32.5"></circle>
    <path class="cls-1" d="M92.73,63.11c-1.94,0-3.52-.45-4.76-1.37-1.22-.92-1.83-2.25-1.83-3.95,0-.36,.04-.79,.12-1.31,.21-1.17,.51-2.57,.9-4.22,1.11-4.47,3.97-6.71,8.57-6.71,1.25,0,2.38,.21,3.37,.64,.99,.4,1.77,1.03,2.34,1.86,.57,.82,.86,1.79,.86,2.92,0,.34-.04,.77-.12,1.29-.25,1.44-.53,2.86-.88,4.22-.57,2.22-1.55,3.9-2.95,5.01-1.39,1.09-3.26,1.63-5.6,1.63Zm.35-3.51c.91,0,1.68-.27,2.31-.81,.65-.53,1.12-1.35,1.39-2.47,.38-1.53,.66-2.86,.86-4,.06-.34,.1-.69,.1-1.05,0-1.48-.77-2.22-2.31-2.22-.91,0-1.69,.27-2.34,.81-.64,.53-1.09,1.35-1.36,2.47-.3,1.09-.59,2.42-.88,4-.06,.33-.1,.66-.1,1.03-.01,1.51,.78,2.25,2.34,2.25Z"></path>
    <path class="cls-1" d="M103.42,62.88c-.18,0-.31-.05-.42-.17-.08-.13-.1-.27-.08-.44l3.37-15.86c.03-.18,.12-.32,.27-.44,.14-.12,.3-.17,.47-.17h6.49c1.81,0,3.25,.38,4.34,1.12,1.11,.75,1.66,1.83,1.66,3.25,0,.4-.05,.83-.14,1.27-.4,1.87-1.22,3.25-2.47,4.15-1.22,.9-2.9,1.34-5.03,1.34h-3.29l-1.12,5.34c-.04,.18-.12,.33-.27,.44-.14,.12-.3,.17-.47,.17h-3.31Zm8.63-9.32c.69,0,1.27-.18,1.78-.56,.52-.38,.86-.91,1.03-1.61,.05-.27,.08-.52,.08-.73,0-.47-.14-.83-.42-1.08-.27-.26-.75-.39-1.42-.39h-2.93l-.92,4.37h2.8Z"></path>
  </g>
  <g>
    <path class="cls-3" d="M58.51,128c-1.5,.03-2.79-.29-3.86-.96-1.08-.67-1.9-1.61-2.46-2.83-.56-1.22-.83-2.64-.8-4.27,.04-1.8,.38-3.27,1.03-4.42,.65-1.15,1.53-2.01,2.64-2.57,1.11-.56,2.36-.85,3.76-.88,1.43-.03,2.68,.28,3.72,.93s1.85,1.57,2.4,2.77c.56,1.2,.82,2.62,.78,4.25-.04,1.8-.36,3.28-.99,4.46s-1.47,2.05-2.54,2.62-2.3,.88-3.69,.91Zm.06-2.42c1.17,0,2.1-.46,2.78-1.38,.69-.92,1.03-2.35,1.03-4.31,0-1.02-.13-1.94-.4-2.75-.27-.81-.67-1.45-1.21-1.93s-1.21-.71-2.03-.71c-.73,0-1.4,.18-2,.55-.61,.36-1.09,.95-1.45,1.76-.36,.81-.55,1.89-.55,3.23,0,1.03,.14,1.96,.43,2.79,.29,.83,.71,1.5,1.28,1.99s1.27,.74,2.12,.74Z"></path>
    <path class="cls-3" d="M68.33,133.02v-16.88h2.99v1.43l.21,.25v8.74l-.03,.82,.03,1.89v3.76h-3.2Zm5.09-5.02c-.71,0-1.29-.08-1.74-.25-.46-.16-.75-.29-.88-.39l.73-2.04c.17,.17,.42,.29,.73,.36s.67,.11,1.07,.11c.52,0,.98-.15,1.38-.46,.4-.31,.72-.76,.95-1.35,.23-.59,.36-1.31,.36-2.17,0-1.25-.2-2.13-.61-2.65-.41-.52-.98-.78-1.71-.78-.46,0-.87,.08-1.25,.24-.38,.16-.68,.33-.91,.5l-.39-1.63c.16-.17,.39-.38,.68-.62,.29-.24,.67-.45,1.14-.63,.47-.18,1.05-.27,1.75-.27,.83,0,1.59,.2,2.3,.6s1.27,1.01,1.7,1.84c.43,.82,.64,1.86,.64,3.12s-.25,2.43-.73,3.4c-.49,.96-1.18,1.71-2.07,2.25-.89,.54-1.93,.8-3.12,.8Z"></path>
    <path class="cls-3" d="M85.45,128c-.71,0-1.3-.12-1.77-.35-.47-.23-.81-.61-1.04-1.12s-.34-1.19-.34-2.03v-6.17h-1.42v-1.71c.52-.15,.93-.29,1.24-.42s.54-.36,.68-.69c.07-.16,.15-.35,.23-.57,.08-.22,.17-.45,.26-.7,.09-.25,.19-.51,.28-.77h1.93v2.67h3.14v2.19h-3.14v4.82c0,.74,.04,1.28,.12,1.62,.08,.34,.21,.56,.4,.65,.19,.09,.46,.14,.82,.14,.18,0,.39-.02,.63-.07,.24-.05,.47-.1,.68-.17,.22-.07,.38-.14,.5-.22l.42,1.8c-.19,.17-.47,.34-.85,.51-.38,.17-.81,.31-1.29,.42-.48,.11-.98,.17-1.48,.17Z"></path>
    <path class="cls-3" d="M92.74,114.46c-.52,0-.96-.16-1.31-.48-.36-.32-.54-.74-.54-1.26,0-.35,.1-.67,.29-.96,.19-.29,.44-.52,.76-.7,.31-.17,.65-.26,1-.26,.57,0,1.02,.16,1.35,.49,.33,.33,.49,.74,.49,1.25s-.2,.99-.6,1.36c-.4,.37-.88,.56-1.43,.56Zm-1.44,13.38v-11.69h3.2v11.69h-3.2Z"></path>
    <path class="cls-3" d="M97.84,127.83v-11.69h2.91l.05,1.25c.27-.21,.62-.42,1.03-.64,.42-.22,.87-.4,1.36-.55,.49-.15,.99-.23,1.5-.24,.81-.02,1.47,.11,1.98,.39,.52,.28,.9,.75,1.16,1.42,.25,.67,.38,1.57,.38,2.69v7.36h-3.19v-6.89c0-.6-.05-1.08-.15-1.43s-.27-.61-.52-.76c-.25-.15-.6-.22-1.06-.21-.31,0-.67,.07-1.1,.22-.43,.15-.82,.36-1.17,.65v8.42h-3.19Zm10.24-8.37l-.59-1.98c.22-.2,.54-.41,.96-.65,.42-.23,.9-.44,1.44-.61,.55-.17,1.12-.26,1.73-.26,.8,0,1.48,.13,2.03,.4,.55,.27,.96,.74,1.24,1.41,.28,.67,.42,1.57,.42,2.71v7.35h-3.21v-6.9c0-.6-.05-1.08-.14-1.43-.09-.35-.27-.61-.51-.76-.25-.15-.6-.22-1.07-.21-.4,0-.81,.1-1.23,.29-.42,.19-.78,.4-1.07,.64Z"></path>
    <path class="cls-3" d="M119.96,114.46c-.52,0-.96-.16-1.31-.48-.36-.32-.54-.74-.54-1.26,0-.35,.1-.67,.29-.96,.19-.29,.44-.52,.76-.7,.31-.17,.65-.26,1-.26,.57,0,1.02,.16,1.35,.49,.33,.33,.49,.74,.49,1.25s-.2,.99-.6,1.36c-.4,.37-.88,.56-1.43,.56Zm-1.44,13.38v-11.69h3.2v11.69h-3.2Z"></path>
    <path class="cls-3" d="M124.41,127.09l.36-2.26c.11,.09,.34,.21,.68,.36,.34,.15,.75,.28,1.23,.4,.48,.12,.97,.18,1.47,.18,.64,0,1.11-.08,1.41-.26s.45-.45,.45-.8c0-.25-.1-.46-.3-.64-.2-.18-.47-.35-.81-.51-.34-.16-.72-.32-1.14-.49-.76-.3-1.38-.63-1.87-.99-.49-.36-.86-.76-1.1-1.22-.24-.46-.36-1-.35-1.61,0-.73,.22-1.33,.64-1.82,.42-.48,.97-.85,1.67-1.09,.7-.24,1.47-.36,2.31-.36s1.59,.08,2.2,.24c.61,.16,1.02,.3,1.24,.44l-.35,2.3c-.13-.11-.34-.23-.63-.36s-.61-.23-.97-.31c-.36-.08-.73-.12-1.1-.12-.68,0-1.17,.08-1.49,.25-.31,.16-.47,.4-.47,.71,0,.4,.15,.69,.47,.89,.32,.19,.76,.41,1.33,.65,.84,.34,1.54,.68,2.12,1.02,.57,.34,1,.73,1.29,1.17,.29,.44,.44,.97,.44,1.6,0,1.16-.42,2.04-1.25,2.65-.83,.6-1.96,.9-3.37,.9-.59,0-1.17-.05-1.72-.14s-1.03-.21-1.45-.35c-.42-.14-.73-.28-.93-.42Z"></path>
    <path class="cls-3" d="M135.56,127.83v-11.69h2.91l.05,1.25c.27-.21,.62-.42,1.03-.64,.42-.22,.87-.4,1.36-.55,.49-.15,.99-.23,1.5-.24,.81-.02,1.47,.11,1.98,.39,.52,.28,.9,.75,1.16,1.42,.25,.67,.38,1.57,.38,2.69v7.36h-3.19v-6.89c0-.6-.05-1.08-.15-1.43s-.27-.61-.52-.76c-.25-.15-.6-.22-1.06-.21-.31,0-.67,.07-1.1,.22-.43,.15-.82,.36-1.17,.65v8.42h-3.19Zm10.24-8.37l-.59-1.98c.22-.2,.54-.41,.96-.65,.42-.23,.9-.44,1.44-.61,.55-.17,1.12-.26,1.73-.26,.8,0,1.48,.13,2.03,.4,.55,.27,.96,.74,1.24,1.41,.28,.67,.42,1.57,.42,2.71v7.35h-3.21v-6.9c0-.6-.05-1.08-.14-1.43-.09-.35-.27-.61-.51-.76-.25-.15-.6-.22-1.07-.21-.4,0-.81,.1-1.23,.29-.42,.19-.78,.4-1.07,.64Z"></path>
  </g>
</svg>
