<?xml version="1.0" encoding="UTF-8"?>
<svg xmlns="http://www.w3.org/2000/svg" id="_图层_1" data-name="图层 1" viewBox="0 0 205 155">
  <defs>
    <style>
      .cls-1 {
        fill: #e5e5e5;
      }

      .cls-2 {
        fill: #8247e5;
      }
    </style>
  </defs>
  <g>
    <path class="cls-1" d="M62.01,128.01v-15.6h1.33c.69,0,1.37-.03,2.05-.08,.68-.06,1.39-.08,2.13-.08,1.2,0,2.24,.18,3.1,.53,.86,.35,1.52,.92,1.99,1.71,.47,.78,.7,1.82,.7,3.1,0,1.78-.53,3.17-1.6,4.15-1.07,.98-2.61,1.47-4.64,1.47-.44,0-.8,0-1.08-.01-.28,0-.51-.01-.69-.01v4.84h-3.3Zm3.3-7.3c.27,.04,.54,.06,.82,.07,.28,.01,.58,.02,.88,.02,.56,0,1.07-.09,1.54-.28,.47-.19,.84-.52,1.11-.99,.28-.47,.41-1.13,.41-1.97,0-.99-.26-1.75-.78-2.28-.52-.53-1.3-.77-2.34-.74-.27,0-.55,.02-.84,.04-.29,.02-.56,.06-.81,.1v6.02Z"></path>
    <path class="cls-1" d="M79.88,128.18c-1.02,0-1.89-.17-2.6-.5-.71-.33-1.29-.79-1.73-1.37s-.75-1.25-.95-2c-.2-.75-.29-1.55-.28-2.39,.02-1.25,.28-2.3,.78-3.15,.5-.85,1.18-1.5,2.05-1.94,.86-.44,1.85-.66,2.94-.66,1.37,0,2.47,.29,3.29,.86,.82,.57,1.41,1.34,1.76,2.28s.52,1.98,.5,3.09c-.01,1.25-.27,2.31-.77,3.17s-1.18,1.51-2.04,1.95c-.86,.44-1.85,.66-2.96,.66Zm.08-2.24c.83,0,1.44-.3,1.82-.93,.38-.63,.57-1.54,.57-2.74,0-.71-.08-1.35-.23-1.93-.15-.58-.4-1.05-.74-1.4-.34-.35-.79-.53-1.35-.54-.84,0-1.45,.3-1.83,.92-.38,.62-.57,1.51-.57,2.68,0,.71,.08,1.37,.23,1.97,.15,.6,.4,1.08,.74,1.43,.34,.36,.79,.54,1.36,.54Z"></path>
    <path class="cls-1" d="M88.05,128.01v-17.06h3.21v17.06h-3.21Z"></path>
    <path class="cls-1" d="M94.22,133.03v-2.52c.12,.04,.31,.08,.56,.13,.26,.04,.46,.06,.6,.06,.34,0,.71-.06,1.11-.18,.4-.12,.78-.4,1.13-.82,.35-.42,.62-1.08,.8-1.98l.15,.29h-1.39l-4.09-11.7h3.41l2.01,6.77,.94,3.59h-.44l.85-3.59,1.64-6.77h3.39l-3.76,12c-.45,1.4-1,2.46-1.64,3.18-.65,.72-1.35,1.2-2.09,1.45-.21,.08-.48,.15-.8,.2-.33,.05-.61,.07-.86,.07-.1,0-.27-.01-.49-.03-.22-.02-.44-.05-.65-.07-.21-.03-.33-.06-.37-.08Z"></path>
    <path class="cls-1" d="M111.25,133.31c-1.84-.01-3.21-.32-4.11-.93s-1.35-1.46-1.35-2.58c0-.41,.1-.79,.29-1.12,.2-.33,.46-.62,.8-.85s.73-.42,1.16-.54l1.83,.17c-.12,.1-.26,.22-.42,.37-.16,.15-.3,.34-.41,.57-.12,.23-.18,.53-.18,.88,0,.4,.08,.76,.23,1.09s.41,.59,.78,.79c.37,.2,.88,.29,1.54,.29,.55,0,1.04-.06,1.5-.18,.45-.12,.81-.31,1.07-.57,.26-.26,.39-.59,.39-.99,0-.35-.06-.66-.18-.92-.12-.26-.36-.47-.72-.61-.36-.15-.89-.22-1.59-.22h-1.94c-.27,0-.5-.02-.7-.06-.2-.04-.4-.08-.6-.12-.13-.04-.23-.07-.28-.11-.05-.04-.15-.07-.3-.1-.53-.15-.9-.36-1.12-.65-.22-.28-.34-.63-.34-1.05,0-.27,.07-.56,.18-.86,.11-.3,.3-.58,.58-.86,.27-.28,.64-.51,1.11-.71l1.81,.33c-.28,.11-.5,.27-.66,.5-.16,.23-.24,.45-.24,.68,0,.34,.11,.58,.32,.71,.21,.13,.58,.19,1.11,.19h2.11c.9,0,1.65,.09,2.24,.26,.59,.17,1.05,.42,1.39,.72,.34,.3,.57,.65,.71,1.03,.14,.38,.21,.78,.21,1.19,0,.7-.17,1.32-.5,1.85-.34,.54-.79,.98-1.38,1.34-.58,.36-1.24,.63-1.99,.81-.74,.18-1.52,.27-2.33,.26Zm-.17-9.25c-.97,0-1.82-.15-2.57-.46-.75-.31-1.33-.75-1.75-1.33s-.63-1.27-.63-2.08c0-.88,.21-1.61,.62-2.21,.41-.59,.99-1.04,1.74-1.34s1.62-.46,2.61-.46c1,0,1.88,.14,2.64,.43s1.35,.73,1.77,1.32c.42,.58,.64,1.31,.64,2.17s-.2,1.58-.59,2.17c-.39,.59-.97,1.04-1.72,1.34s-1.68,.46-2.76,.46Zm.04-1.79c.62,0,1.11-.14,1.49-.43,.37-.28,.56-.84,.56-1.68,0-.68-.16-1.19-.49-1.54-.33-.35-.82-.52-1.49-.52-.39,0-.74,.06-1.03,.17-.29,.12-.52,.32-.69,.61-.17,.29-.25,.71-.25,1.24,0,.58,.14,1.08,.43,1.51,.29,.42,.77,.64,1.46,.64Zm3.65-3.67l-.5-1.32c.14-.19,.42-.4,.85-.64s.93-.35,1.5-.35h1.37v2.31h-3.21Z"></path>
    <path class="cls-1" d="M124.38,128.18c-1.02,0-1.89-.17-2.6-.5-.71-.33-1.29-.79-1.73-1.37s-.75-1.25-.95-2-.29-1.55-.28-2.39c.02-1.25,.28-2.3,.78-3.15,.5-.85,1.18-1.5,2.05-1.94,.87-.44,1.85-.66,2.95-.66,1.37,0,2.47,.29,3.29,.86,.82,.57,1.41,1.34,1.76,2.28s.53,1.98,.5,3.09c-.01,1.25-.27,2.31-.77,3.17s-1.18,1.51-2.04,1.95c-.86,.44-1.85,.66-2.96,.66Zm.08-2.24c.83,0,1.44-.3,1.82-.93s.57-1.54,.57-2.74c0-.71-.08-1.35-.23-1.93-.15-.58-.4-1.05-.74-1.4-.34-.35-.79-.53-1.35-.54-.84,0-1.45,.3-1.83,.92-.38,.62-.57,1.51-.57,2.68,0,.71,.08,1.37,.23,1.97,.15,.6,.4,1.08,.74,1.43,.34,.36,.79,.54,1.36,.54Z"></path>
    <path class="cls-1" d="M132.57,128.01v-11.69h2.91l.05,1.31c.27-.22,.61-.45,1.02-.68s.87-.42,1.37-.57c.5-.15,1.01-.24,1.52-.24,1.22-.03,2.11,.3,2.69,.97,.57,.68,.86,1.86,.86,3.55v7.34h-3.21v-6.89c0-.91-.12-1.55-.36-1.91-.24-.36-.7-.53-1.4-.5-.21,0-.45,.04-.71,.11s-.53,.16-.8,.29c-.27,.13-.52,.29-.75,.48v8.42h-3.19Z"></path>
  </g>
  <path class="cls-2" d="M121.5,41.56c-1.35-.77-3.09-.77-4.63,0l-10.8,6.36-7.33,4.05-10.61,6.36c-1.35,.77-3.09,.77-4.63,0l-8.29-5.01c-1.35-.77-2.31-2.31-2.31-4.05v-9.64c0-1.54,.77-3.09,2.31-4.05l8.29-4.82c1.35-.77,3.09-.77,4.63,0l8.29,5.01c1.35,.77,2.31,2.31,2.31,4.05v6.36l7.33-4.24v-6.56c0-1.54-.77-3.09-2.31-4.05l-15.43-9.07c-1.35-.77-3.09-.77-4.63,0l-15.82,9.26c-1.54,.77-2.31,2.31-2.31,3.86v18.13c0,1.54,.77,3.09,2.31,4.05l15.62,9.07c1.35,.77,3.09,.77,4.63,0l10.61-6.17,7.33-4.24,10.61-6.17c1.35-.77,3.09-.77,4.63,0l8.29,4.82c1.35,.77,2.31,2.31,2.31,4.05v9.64c0,1.54-.77,3.09-2.31,4.05l-8.1,4.82c-1.35,.77-3.09,.77-4.63,0l-8.29-4.82c-1.35-.77-2.31-2.31-2.31-4.05v-6.17l-7.33,4.24v6.36c0,1.54,.77,3.09,2.31,4.05l15.62,9.07c1.35,.77,3.09,.77,4.63,0l15.62-9.07c1.35-.77,2.31-2.31,2.31-4.05v-18.32c0-1.54-.77-3.09-2.31-4.05l-15.62-9.07Z"></path>
</svg>
