<?xml version="1.0" encoding="UTF-8"?>
<svg xmlns="http://www.w3.org/2000/svg" xmlns:xlink="http://www.w3.org/1999/xlink" id="_图层_1" data-name="图层 1" viewBox="0 0 205 155">
  <defs>
    <style>
      .cls-1 {
        fill: url(#_未命名的渐变_3-3);
      }

      .cls-2 {
        fill: url(#_未命名的渐变_3-2);
      }

      .cls-3 {
        fill: #e5e5e5;
      }

      .cls-4 {
        fill: url(#_未命名的渐变_3);
      }
    </style>
    <linearGradient id="_未命名的渐变_3" data-name="未命名的渐变 3" x1="128.98" y1="-133.9" x2="93.08" y2="-65.14" gradientTransform="translate(0 159)" gradientUnits="userSpaceOnUse">
      <stop offset="0" stop-color="#00ffa3"></stop>
      <stop offset="1" stop-color="#dc1fff"></stop>
    </linearGradient>
    <linearGradient id="_未命名的渐变_3-2" data-name="未命名的渐变 3" x1="113.28" y1="-142.1" x2="77.39" y2="-73.34" xlink:href="#_未命名的渐变_3"></linearGradient>
    <linearGradient id="_未命名的渐变_3-3" data-name="未命名的渐变 3" x1="121.08" y1="-138.03" x2="85.18" y2="-69.27" xlink:href="#_未命名的渐变_3"></linearGradient>
  </defs>
  <g>
    <path class="cls-3" d="M73.78,123.78c-.72,0-1.4-.05-2.05-.16-.64-.11-1.2-.23-1.67-.38-.47-.15-.8-.28-1-.4l.49-2.6c.26,.15,.6,.31,1.02,.46,.42,.15,.89,.28,1.4,.38,.51,.1,1.03,.15,1.54,.15,.83,0,1.45-.13,1.86-.39,.41-.26,.61-.67,.61-1.25,0-.41-.11-.75-.34-1.02-.22-.28-.58-.55-1.05-.81-.48-.27-1.1-.58-1.86-.94-.65-.32-1.26-.69-1.84-1.12-.57-.43-1.04-.95-1.4-1.55-.36-.6-.54-1.31-.54-2.11,0-.73,.14-1.36,.43-1.88s.67-.96,1.17-1.3c.5-.34,1.07-.59,1.73-.75,.66-.16,1.36-.24,2.11-.24,1.08,0,1.96,.1,2.66,.3,.69,.2,1.18,.39,1.45,.57l-.56,2.5c-.33-.24-.78-.45-1.36-.65s-1.25-.29-2-.29c-.5,0-.93,.06-1.3,.18s-.65,.29-.86,.52c-.2,.23-.3,.51-.3,.83,0,.39,.1,.73,.29,1,.19,.28,.5,.54,.92,.8,.42,.25,.97,.55,1.64,.88,.61,.29,1.17,.59,1.69,.9,.52,.31,.97,.65,1.36,1.02,.39,.37,.7,.79,.91,1.27,.22,.48,.33,1.02,.33,1.64,0,.94-.22,1.74-.66,2.41-.44,.67-1.07,1.18-1.9,1.53-.82,.35-1.8,.53-2.93,.53Z"></path>
    <path class="cls-3" d="M86.44,123.78c-1.02,0-1.89-.17-2.6-.5-.71-.33-1.29-.79-1.73-1.37s-.75-1.25-.95-2c-.2-.75-.29-1.55-.28-2.39,.02-1.25,.28-2.3,.78-3.15,.5-.85,1.18-1.5,2.05-1.94,.86-.44,1.85-.66,2.95-.66,1.37,0,2.47,.29,3.29,.86,.82,.57,1.41,1.34,1.76,2.28,.36,.95,.52,1.98,.5,3.09-.01,1.25-.27,2.31-.77,3.17s-1.18,1.51-2.04,1.95c-.86,.44-1.85,.66-2.96,.66Zm.08-2.24c.83,0,1.44-.3,1.82-.93s.57-1.54,.57-2.74c0-.71-.08-1.35-.23-1.93s-.4-1.05-.74-1.4c-.34-.35-.79-.53-1.35-.54-.84,0-1.45,.3-1.83,.92-.38,.62-.57,1.51-.57,2.68,0,.71,.08,1.37,.23,1.97,.15,.6,.4,1.08,.74,1.43,.34,.36,.79,.54,1.36,.54Z"></path>
    <path class="cls-3" d="M94.6,123.61v-17.06h3.21v17.06h-3.21Z"></path>
    <path class="cls-3" d="M104.07,123.78c-.74,0-1.39-.15-1.95-.45-.56-.3-1-.72-1.31-1.26-.31-.54-.47-1.17-.47-1.88s.19-1.33,.58-1.84c.39-.51,.92-.91,1.58-1.2,.46-.19,.95-.34,1.5-.44,.54-.11,1.08-.18,1.63-.22,.54-.04,1.05-.06,1.52-.06l.54,.66-.54,1.03c-.25,0-.54,.02-.85,.05-.32,.04-.62,.09-.91,.15-.29,.07-.53,.14-.73,.23-.27,.13-.52,.29-.73,.5s-.32,.53-.32,.97c0,.57,.16,.99,.47,1.25,.31,.27,.72,.4,1.22,.4,.26,0,.52-.04,.77-.11,.26-.07,.48-.15,.68-.25,.2-.09,.33-.18,.4-.27l.56,.66-.39,.9c-.32,.28-.75,.54-1.3,.79-.55,.25-1.2,.37-1.95,.37Zm6.28-.17h-3.03v-1.74h-.17v-6.3c0-.59-.16-.99-.47-1.17-.32-.19-.77-.28-1.35-.28-.44,0-.9,.04-1.38,.12-.48,.08-.93,.18-1.36,.3s-.78,.26-1.07,.41l-.69-2.02c.24-.14,.61-.3,1.11-.49,.5-.19,1.08-.36,1.73-.5,.65-.14,1.31-.21,1.96-.21,1.08,0,1.97,.13,2.66,.38s1.21,.68,1.55,1.28c.34,.6,.51,1.43,.51,2.5v7.73Z"></path>
    <path class="cls-3" d="M113.5,123.61v-11.69h2.91l.05,1.31c.27-.22,.61-.45,1.02-.68s.87-.42,1.37-.57c.5-.15,1.01-.24,1.52-.24,1.22-.03,2.11,.3,2.69,.97,.57,.68,.86,1.86,.86,3.55v7.34h-3.21v-6.89c0-.91-.12-1.55-.36-1.91-.24-.36-.7-.53-1.4-.5-.21,0-.45,.04-.71,.11s-.53,.16-.8,.29c-.27,.13-.52,.29-.75,.48v8.42h-3.19Z"></path>
    <path class="cls-3" d="M129.75,123.78c-.74,0-1.39-.15-1.95-.45-.56-.3-1-.72-1.31-1.26-.31-.54-.47-1.17-.47-1.88s.19-1.33,.58-1.84c.39-.51,.92-.91,1.58-1.2,.46-.19,.95-.34,1.5-.44,.54-.11,1.08-.18,1.63-.22,.54-.04,1.05-.06,1.52-.06l.54,.66-.54,1.03c-.25,0-.54,.02-.85,.05-.32,.04-.62,.09-.91,.15-.29,.07-.53,.14-.73,.23-.27,.13-.52,.29-.73,.5s-.32,.53-.32,.97c0,.57,.16,.99,.47,1.25,.32,.27,.72,.4,1.22,.4,.26,0,.52-.04,.77-.11,.25-.07,.48-.15,.68-.25,.2-.09,.33-.18,.4-.27l.56,.66-.39,.9c-.32,.28-.75,.54-1.3,.79s-1.2,.37-1.95,.37Zm6.28-.17h-3.03v-1.74h-.17v-6.3c0-.59-.16-.99-.47-1.17-.32-.19-.77-.28-1.35-.28-.44,0-.9,.04-1.38,.12-.48,.08-.93,.18-1.36,.3-.43,.13-.78,.26-1.07,.41l-.69-2.02c.24-.14,.61-.3,1.11-.49,.5-.19,1.08-.36,1.73-.5s1.31-.21,1.96-.21c1.08,0,1.96,.13,2.66,.38s1.21,.68,1.55,1.28c.34,.6,.51,1.43,.51,2.5v7.73Z"></path>
  </g>
  <g>
    <path class="cls-4" d="M80.56,70.1c.39-.39,.93-.62,1.5-.62h51.87c.95,0,1.42,1.14,.75,1.81l-10.25,10.25c-.39,.39-.93,.62-1.5,.62h-51.87c-.95,0-1.42-1.14-.75-1.81l10.25-10.25Z"></path>
    <path class="cls-2" d="M80.56,31.84c.41-.39,.95-.62,1.5-.62h51.87c.95,0,1.42,1.14,.75,1.81l-10.25,10.25c-.39,.39-.93,.62-1.5,.62h-51.87c-.95,0-1.42-1.14-.75-1.81l10.25-10.25Z"></path>
    <path class="cls-1" d="M124.44,50.85c-.39-.39-.93-.62-1.5-.62h-51.87c-.95,0-1.42,1.14-.75,1.81l10.25,10.25c.39,.39,.93,.62,1.5,.62h51.87c.95,0,1.42-1.14,.75-1.81l-10.25-10.25Z"></path>
  </g>
</svg>
