<?xml version="1.0" encoding="UTF-8"?>
<svg xmlns="http://www.w3.org/2000/svg" id="_图层_1" data-name="图层 1" viewBox="0 0 205 155">
  <defs>
    <style>
      .cls-1 {
        fill: #f7f7f8;
      }

      .cls-2 {
        fill: #f9f9f9;
      }

      .cls-3 {
        fill: #fe4f0a;
      }

      .cls-4 {
        fill: #e5e5e5;
      }

      .cls-5 {
        fill: #29296e;
      }
    </style>
  </defs>
  <g>
    <path class="cls-4" d="M61.35,130.7c-.72,0-1.4-.05-2.05-.16-.64-.11-1.2-.23-1.67-.38-.47-.15-.8-.28-1-.4l.49-2.6c.26,.15,.6,.31,1.02,.46,.42,.15,.89,.28,1.4,.38,.51,.1,1.03,.15,1.54,.15,.83,0,1.45-.13,1.86-.39,.41-.26,.61-.67,.61-1.25,0-.41-.11-.75-.34-1.02-.22-.28-.58-.55-1.06-.81-.48-.27-1.1-.58-1.86-.94-.65-.32-1.26-.69-1.84-1.12-.57-.43-1.04-.95-1.4-1.55-.36-.6-.54-1.31-.54-2.11,0-.73,.14-1.36,.43-1.88,.28-.53,.67-.96,1.17-1.3,.5-.34,1.07-.59,1.73-.75,.65-.16,1.36-.24,2.11-.24,1.08,0,1.96,.1,2.66,.3,.69,.2,1.18,.39,1.45,.57l-.56,2.5c-.33-.24-.78-.45-1.36-.65s-1.25-.29-2-.29c-.5,0-.93,.06-1.3,.18-.37,.12-.65,.29-.86,.52-.2,.23-.3,.51-.3,.83,0,.39,.1,.73,.29,1,.19,.28,.5,.54,.92,.8,.42,.25,.97,.55,1.64,.88,.61,.29,1.17,.59,1.69,.9s.97,.65,1.36,1.02,.7,.79,.91,1.27c.22,.48,.33,1.02,.33,1.64,0,.94-.22,1.74-.66,2.41-.44,.67-1.07,1.18-1.9,1.53-.82,.35-1.8,.53-2.94,.53Z"></path>
    <path class="cls-4" d="M72.83,130.7c-.71,0-1.3-.12-1.77-.35-.47-.23-.81-.61-1.04-1.12s-.34-1.19-.34-2.03v-6.17h-1.42v-1.71c.52-.15,.93-.29,1.24-.42s.54-.36,.68-.69c.07-.16,.15-.35,.23-.57,.08-.22,.17-.45,.26-.7,.09-.25,.19-.51,.28-.77h1.93v2.67h3.14v2.19h-3.14v4.82c0,.74,.04,1.28,.12,1.62,.08,.34,.21,.56,.4,.65,.19,.09,.46,.14,.82,.14,.18,0,.39-.02,.63-.07,.24-.05,.47-.1,.68-.17,.22-.07,.38-.14,.5-.22l.42,1.8c-.19,.17-.47,.34-.85,.51-.38,.17-.81,.31-1.29,.42-.48,.11-.98,.17-1.48,.17Z"></path>
    <path class="cls-4" d="M81.62,130.7c-.74,0-1.39-.15-1.95-.45s-1-.72-1.31-1.26c-.31-.54-.47-1.17-.47-1.88s.19-1.33,.58-1.84c.39-.51,.92-.91,1.58-1.2,.45-.19,.95-.34,1.5-.44,.54-.11,1.08-.18,1.63-.22s1.05-.06,1.52-.06l.54,.66-.54,1.03c-.25,0-.54,.02-.85,.05-.32,.04-.62,.09-.91,.15-.29,.07-.53,.14-.73,.23-.27,.13-.52,.29-.73,.5-.21,.21-.32,.53-.32,.97,0,.57,.16,.99,.47,1.25s.72,.4,1.22,.4c.26,0,.52-.04,.77-.11,.26-.07,.48-.15,.68-.25,.2-.09,.33-.18,.4-.27l.56,.66-.39,.9c-.32,.28-.75,.54-1.3,.79-.55,.25-1.2,.37-1.95,.37Zm6.28-.17h-3.03v-1.74h-.17v-6.3c0-.59-.16-.99-.47-1.17s-.77-.28-1.35-.28c-.44,0-.9,.04-1.38,.12-.48,.08-.93,.18-1.36,.3s-.78,.26-1.07,.41l-.69-2.02c.24-.14,.61-.3,1.11-.49,.5-.19,1.08-.36,1.73-.5s1.31-.21,1.96-.21c1.08,0,1.97,.13,2.66,.38,.7,.25,1.21,.68,1.55,1.28,.34,.6,.51,1.43,.51,2.5v7.73Z"></path>
    <path class="cls-4" d="M90.91,130.53v-11.69h2.77l.18,1.83,.25,.56v9.3h-3.2Zm3.01-7.62l-.15-2.25c.13-.34,.36-.66,.69-.96,.34-.3,.73-.55,1.2-.75,.46-.19,.95-.29,1.46-.29,.21,0,.4,.01,.58,.03,.18,.02,.31,.06,.39,.11v3.12c-.1-.06-.25-.13-.45-.19-.2-.06-.51-.09-.92-.09-.5,0-.94,.07-1.3,.21-.36,.14-.67,.32-.92,.51-.25,.2-.44,.38-.58,.54Z"></path>
    <path class="cls-4" d="M110.97,118.84l-7.79,8.27,.15-.68,.04,2.03v2.08h-3.14v-17.03h3.14v7.51l-.13,3.55-.49-.47,4.54-5.25h3.69Zm-6.56,6.44l2.12-2.17,4.81,7.43h-3.58l-3.35-5.26Z"></path>
    <path class="cls-4" d="M113.01,130.53v-15.6h3.04l5.85,9.23,2.04,4.06h-.72l-.47-5.24v-8.05h3v15.6h-3.25l-5.59-8.95-2.34-4.62h.88l.55,5.68v7.89h-2.98Z"></path>
    <path class="cls-4" d="M134.02,130.7c-1.8,0-3.18-.54-4.14-1.61s-1.44-2.55-1.44-4.44c0-1.13,.22-2.15,.66-3.04,.44-.9,1.07-1.6,1.91-2.13s1.85-.79,3.06-.79c.61,0,1.19,.07,1.74,.23s1.05,.42,1.48,.78c.43,.36,.78,.84,1.04,1.43,.26,.59,.4,1.31,.4,2.17,0,.43,0,.82-.02,1.19s-.05,.68-.09,.93h-8.45l.21-1.73h5.38c.04-.57,0-1.07-.09-1.5-.09-.43-.28-.77-.55-1.01-.27-.24-.66-.36-1.16-.36s-.9,.13-1.26,.4-.64,.72-.83,1.37c-.19,.65-.27,1.54-.25,2.67,.03,.76,.18,1.37,.45,1.83,.27,.46,.64,.79,1.1,.99,.46,.2,1.01,.3,1.62,.3,.34,0,.7-.03,1.1-.08,.4-.06,.78-.13,1.13-.23,.36-.09,.63-.19,.82-.29l.54,1.74c-.26,.21-.61,.4-1.07,.58-.45,.18-.96,.32-1.53,.43s-1.16,.16-1.76,.16Z"></path>
    <path class="cls-4" d="M144.84,130.7c-.71,0-1.3-.12-1.77-.35s-.81-.61-1.04-1.12c-.23-.51-.34-1.19-.34-2.03v-6.17h-1.42v-1.71c.52-.15,.93-.29,1.24-.42s.54-.36,.68-.69c.07-.16,.15-.35,.23-.57,.08-.22,.17-.45,.26-.7s.19-.51,.28-.77h1.93v2.67h3.14v2.19h-3.14v4.82c0,.74,.04,1.28,.12,1.62s.21,.56,.4,.65c.19,.09,.46,.14,.82,.14,.18,0,.39-.02,.63-.07,.24-.05,.47-.1,.68-.17,.22-.07,.38-.14,.5-.22l.42,1.8c-.19,.17-.47,.34-.85,.51-.38,.17-.81,.31-1.29,.42-.48,.11-.98,.17-1.48,.17Z"></path>
  </g>
  <g>
    <circle class="cls-5" cx="102.5" cy="56.8" r="32.5"></circle>
    <g>
      <path class="cls-2" d="M73.9,55.82c-.37,.04-.7-.02-.59-.49,1.42-5.73,4.58-10.05,10.25-12.14,6.42-2.38,12.33-.78,17.73,2.9,3.57,2.43,6.86,5.25,10.33,7.82,1.57,1.16,3.23,2.25,4.95,3.18,3.29,1.76,6.6,1.16,9.86-.22,1.7-.72,3.41-1.45,5.25-2.24,.22,2.43-.98,4.36-1.63,6.43-1.68,4.72-5.15,7.44-9.86,8.72-6.55,1.78-12.35-.32-17.87-3.61-3.64-2.17-6.71-5.06-9.71-8.02-.58-.57-1.17-1.12-1.77-1.66-3.91-3.55-8.29-3.76-12.94-1.78-1.31,.56-2.61,1-4.02,1.12Z"></path>
      <path class="cls-3" d="M73.9,55.82c6.85-3.63,12.23-4.93,18.24,.87,3.3,3.19,6.58,6.39,10.49,8.86,3.76,2.38,7.85,4.03,12.27,4.18,6.71,.22,11.81-2.81,15.16-8.68,.12,1.75-1.02,3.06-1.83,4.37-4.23,6.81-10.44,10.45-18.47,10.15-6.31-.24-11.88-2.87-16.85-6.76-4.33-3.39-8.25-7.3-12.88-10.31-1.9-1.24-3.99-1.99-6.12-2.68Z"></path>
      <path class="cls-2" d="M123.47,42.64c-.59,.87-1.24,1.09-1.84,1.15-1.61,.17-2.24,1.2-2.56,2.6-.09,.41-.2,.83-.39,1.2-.28,.57-.62,.55-.87-.05-.12-.29-.25-.59-.27-.9-.16-1.75-1.1-2.64-2.84-2.86-.51-.06-1.34-.08-1.41-.78-.09-.86,.84-.54,1.22-.61,2.01-.41,2.88-1.72,3.23-3.58,.05-.27-.12-.73,.33-.79,.47-.06,.65,.31,.7,.72,.31,2.67,2.26,3.51,4.72,3.9Z"></path>
      <circle class="cls-1" cx="86.03" cy="72.91" r="1.82"></circle>
    </g>
  </g>
</svg>
