<?xml version="1.0" encoding="UTF-8"?>
<svg xmlns="http://www.w3.org/2000/svg" id="_图层_1" data-name="图层 1" viewBox="0 0 205 155">
  <defs>
    <style>
      .cls-1 {
        fill: #e5e5e5;
      }

      .cls-2 {
        fill: #6fbcf0;
      }

      .cls-3 {
        fill: #fff;
        fill-rule: evenodd;
        stroke: rgba(255, 255, 255, 0);
        stroke-width: 5.81px;
      }
    </style>
  </defs>
  <g>
    <path class="cls-1" d="M92.54,130.39c-.72,0-1.4-.05-2.05-.16-.64-.11-1.2-.23-1.67-.38-.47-.15-.8-.28-1-.4l.49-2.6c.26,.15,.6,.31,1.02,.46,.42,.15,.89,.28,1.4,.38,.51,.1,1.03,.15,1.54,.15,.83,0,1.45-.13,1.86-.39,.41-.26,.61-.67,.61-1.25,0-.41-.11-.75-.34-1.02s-.58-.55-1.06-.81c-.48-.27-1.1-.58-1.86-.94-.65-.32-1.26-.69-1.84-1.12-.57-.43-1.04-.95-1.4-1.55-.36-.6-.54-1.31-.54-2.11,0-.73,.14-1.36,.42-1.88,.28-.53,.67-.96,1.17-1.3,.5-.34,1.07-.59,1.73-.75s1.36-.24,2.11-.24c1.08,0,1.96,.1,2.66,.3s1.18,.39,1.45,.57l-.56,2.5c-.33-.24-.78-.45-1.37-.65s-1.25-.29-2-.29c-.5,0-.93,.06-1.3,.18-.37,.12-.65,.29-.86,.52s-.3,.51-.3,.83c0,.39,.1,.73,.29,1,.19,.28,.5,.54,.92,.8,.42,.25,.97,.55,1.64,.88,.61,.29,1.17,.59,1.69,.9,.52,.31,.97,.65,1.37,1.02,.39,.37,.7,.79,.91,1.27,.22,.48,.33,1.02,.33,1.64,0,.94-.22,1.74-.66,2.41-.44,.67-1.07,1.18-1.89,1.53-.82,.35-1.8,.53-2.94,.53Z"></path>
    <path class="cls-1" d="M104.01,130.39c-.81,0-1.47-.12-1.97-.36-.5-.24-.88-.59-1.14-1.03-.26-.45-.43-.98-.53-1.59-.09-.61-.14-1.28-.14-2.02v-6.87h3.19v6.91c0,.74,.06,1.29,.19,1.65,.13,.36,.32,.61,.58,.72s.6,.18,1.01,.18c.25,0,.51-.04,.78-.11,.27-.07,.51-.16,.74-.26s.4-.2,.51-.29v-8.81h3.2v11.87h-2.04c-.27,0-.48-.04-.63-.13s-.23-.28-.23-.59v-.78l.06,.3c-.29,.22-.63,.43-1.04,.6-.41,.18-.84,.32-1.29,.43-.45,.1-.87,.16-1.27,.16Z"></path>
    <path class="cls-1" d="M115.24,116.85c-.52,0-.96-.16-1.31-.48-.36-.32-.54-.74-.54-1.26,0-.35,.1-.67,.29-.96,.19-.29,.45-.52,.76-.7,.31-.17,.65-.26,1-.26,.57,0,1.02,.16,1.35,.49,.33,.33,.49,.74,.49,1.25s-.2,.99-.6,1.36c-.4,.37-.88,.56-1.43,.56Zm-1.44,13.38v-11.69h3.2v11.69h-3.2Z"></path>
  </g>
  <g>
    <circle id="path1579" class="cls-2" cx="102.5" cy="57.11" r="32.5"></circle>
    <path id="path8" class="cls-3" d="M86.91,74.02c3.25,5.64,9.09,9.01,15.59,9.01s12.34-3.38,15.59-9.01c3.25-5.64,3.25-12.37,0-18l-13.71-23.77c-.84-1.45-2.92-1.45-3.76,0l-13.71,23.77c-3.28,5.64-3.28,12.37,0,18h0Zm11.73-30.47l2.92-5.08c.41-.71,1.47-.71,1.88,0l11.25,19.5c2.06,3.58,2.46,7.72,1.17,11.53-.13-.61-.33-1.24-.58-1.88-1.55-3.94-5.08-6.96-10.46-8.99-3.71-1.4-6.07-3.48-7.01-6.14-1.22-3.45,.08-7.21,.84-8.94h0Zm-5,8.63l-3.33,5.79c-2.54,4.42-2.54,9.67,0,14.09s7.11,7.03,12.19,7.03c3.38,0,6.53-1.17,9.01-3.22,.33-.81,1.32-3.78,.08-6.86-1.14-2.84-3.88-5.1-8.18-6.73-4.82-1.83-7.97-4.7-9.34-8.51-.18-.53-.3-1.07-.43-1.6Z"></path>
  </g>
</svg>
