<?xml version="1.0" encoding="UTF-8"?>
<svg xmlns="http://www.w3.org/2000/svg" id="_图层_1" data-name="图层 1" viewBox="0 0 205 155">
  <defs>
    <style>
      .cls-1 {
        fill: #fff;
      }

      .cls-2 {
        fill: #e5e5e5;
      }

      .cls-3 {
        fill: #093687;
      }
    </style>
  </defs>
  <g>
    <circle class="cls-3" cx="102.5" cy="57.02" r="32.5"></circle>
    <path class="cls-1" d="M100.52,68.67l5.8-17.61,2.79,.91-2-6.59h17.26c3.13,0,4.76,2.8,3.63,6.24l-1.09,3.33s-.03,.08-.05,.13l-.05,.12c-.3,.82-.72,1.59-1.24,2.29-1.64,2.23-4.14,3.68-6.37,3.69h-8.66l-2.46,7.49h-7.57Zm11.31-11.38h4.6c1.15,0,2.42-1.03,2.84-2.29l1.13-3.44c.42-1.26-.18-2.29-1.33-2.29h-4.6l-2.63,8.02Zm-31.21,11.38c-.2,0-.39-.02-.59-.05-.33-.04-.65-.12-.95-.23-.61-.23-1.15-.54-1.56-1.06-.25-.32-.44-.67-.58-1.05-.07-.19-.13-.39-.17-.59-.22-1.01-.13-2.02,.15-3.01,.02-.09,.14-.46,.14-.46l5.54-16.85h7.63l-5.62,17.11c-.31,.94-.07,1.77,.6,2.12,.22,.12,.46,.18,.7,.17h3.77l6.37-19.4h8.63l-6.33,6.59,3.42-.91-5.8,17.61h-15.36Z"></path>
  </g>
  <g>
    <path class="cls-2" d="M80.58,125.04c-1.54,0-2.78-.27-3.71-.82s-1.6-1.33-2.02-2.33c-.42-1-.62-2.19-.62-3.55l.03-9.06h3.28l-.04,8.59c0,1.22,.12,2.17,.35,2.83,.23,.66,.58,1.12,1.04,1.38s1.02,.38,1.69,.38,1.18-.13,1.62-.39,.78-.73,1-1.39c.23-.66,.34-1.6,.34-2.8v-8.59h3.24v9.11c0,2.11-.5,3.74-1.5,4.91-1,1.17-2.57,1.75-4.69,1.75Z"></path>
    <path class="cls-2" d="M89.93,130.06v-16.88h2.99v1.43l.21,.25v8.74l-.03,.82,.03,1.89v3.76h-3.2Zm5.09-5.02c-.71,0-1.29-.08-1.74-.25-.46-.16-.75-.29-.88-.39l.73-2.04c.17,.17,.42,.29,.73,.36s.67,.11,1.07,.11c.52,0,.98-.15,1.38-.46,.4-.31,.72-.76,.95-1.35,.23-.59,.36-1.31,.36-2.17,0-1.25-.2-2.13-.61-2.65-.41-.52-.98-.78-1.71-.78-.46,0-.87,.08-1.25,.24-.38,.16-.68,.33-.91,.5l-.39-1.63c.16-.17,.39-.38,.68-.62,.29-.24,.67-.45,1.14-.63,.47-.18,1.05-.27,1.75-.27,.83,0,1.59,.2,2.3,.6s1.27,1.01,1.7,1.84c.43,.82,.64,1.86,.64,3.12s-.25,2.43-.73,3.4c-.49,.96-1.18,1.71-2.07,2.25-.89,.54-1.93,.8-3.12,.8Z"></path>
    <path class="cls-2" d="M103.48,107.85h3.17v4.45l-.09,2.37,.09,.06v8.39l-3.17,1.1v-16.38Zm4.9,17.23c-.53,0-1.07-.03-1.61-.09-.54-.06-1.05-.14-1.51-.24-.47-.09-.86-.19-1.17-.28-.32-.09-.52-.17-.61-.24l3.17-1.73c.14,.13,.36,.23,.67,.29,.31,.06,.69,.09,1.13,.09,.5,0,.96-.16,1.37-.47,.41-.31,.73-.77,.96-1.37s.36-1.33,.36-2.19c0-1.26-.2-2.15-.62-2.66-.42-.51-1-.77-1.72-.77-.46,0-.88,.08-1.27,.25-.38,.16-.68,.33-.89,.49l-.39-1.63c.16-.17,.39-.37,.68-.61,.29-.24,.67-.45,1.14-.63,.47-.18,1.06-.27,1.75-.27,.83,0,1.6,.2,2.29,.6,.7,.4,1.26,1.01,1.68,1.84,.42,.82,.63,1.86,.63,3.12s-.25,2.44-.75,3.41c-.5,.97-1.2,1.72-2.11,2.26-.91,.54-1.98,.81-3.2,.81Z"></path>
    <path class="cls-2" d="M118.51,111.5c-.52,0-.96-.16-1.31-.48-.36-.32-.54-.74-.54-1.26,0-.35,.1-.67,.29-.96,.19-.29,.44-.52,.76-.7,.31-.17,.65-.26,1-.26,.57,0,1.02,.16,1.35,.49,.33,.33,.49,.74,.49,1.25s-.2,.99-.6,1.36c-.4,.37-.88,.56-1.43,.56Zm-1.44,13.38v-11.69h3.2v11.69h-3.2Z"></path>
    <path class="cls-2" d="M127.15,125.04c-.71,0-1.3-.12-1.77-.35s-.81-.61-1.04-1.12c-.23-.51-.34-1.19-.34-2.03v-6.17h-1.42v-1.71c.52-.15,.93-.29,1.24-.42s.54-.36,.68-.69c.07-.16,.15-.35,.23-.57,.08-.22,.17-.45,.26-.7s.19-.51,.28-.77h1.93v2.67h3.14v2.19h-3.14v4.82c0,.74,.04,1.28,.12,1.62s.21,.56,.4,.65c.19,.09,.46,.14,.82,.14,.18,0,.39-.02,.63-.07,.24-.05,.47-.1,.68-.17,.22-.07,.38-.14,.5-.22l.42,1.8c-.19,.17-.47,.34-.85,.51-.38,.17-.81,.31-1.29,.42-.48,.11-.98,.17-1.48,.17Z"></path>
  </g>
</svg>
