<?xml version="1.0" encoding="UTF-8"?>
<svg xmlns="http://www.w3.org/2000/svg" id="_图层_1" data-name="图层 1" viewBox="0 0 205 155">
  <defs>
    <style>
      .cls-1 {
        fill: #e5e5e5;
      }

      .cls-2 {
        fill: #4e529a;
      }

      .cls-2, .cls-3 {
        fill-rule: evenodd;
      }

      .cls-3 {
        fill: #8c8dfc;
      }
    </style>
  </defs>
  <g>
    <path class="cls-1" d="M67.48,117.37l-.44-.85,5.16-7.69,.61-.91h-5v-2.25h8.9l.37,.99-5.08,7.53-.64,.91h5.42v2.27h-9.29Z"></path>
    <path class="cls-1" d="M89.94,105.68l-7.79,8.27,.15-.68,.04,2.03v2.08h-3.14v-17.03h3.14v7.51l-.13,3.55-.49-.47,4.54-5.25h3.69Zm-6.56,6.44l2.12-2.17,4.81,7.43h-3.58l-3.35-5.26Z"></path>
    <path class="cls-1" d="M96.18,117.54c-.72,0-1.4-.05-2.05-.16-.64-.11-1.2-.23-1.67-.38-.47-.15-.8-.28-1-.4l.49-2.6c.26,.15,.6,.31,1.02,.46,.42,.15,.89,.28,1.4,.38,.51,.1,1.03,.15,1.54,.15,.83,0,1.45-.13,1.86-.39,.41-.26,.61-.67,.61-1.25,0-.41-.11-.75-.34-1.02-.22-.28-.58-.55-1.06-.81-.48-.27-1.1-.58-1.86-.94-.65-.32-1.26-.69-1.84-1.12-.57-.43-1.04-.95-1.4-1.55-.36-.6-.54-1.31-.54-2.11,0-.73,.14-1.36,.43-1.88,.28-.53,.67-.96,1.17-1.3,.5-.34,1.07-.59,1.73-.75,.65-.16,1.36-.24,2.11-.24,1.08,0,1.96,.1,2.66,.3,.69,.2,1.18,.39,1.45,.57l-.56,2.5c-.33-.24-.78-.45-1.36-.65s-1.25-.29-2-.29c-.5,0-.93,.06-1.3,.18-.37,.12-.65,.29-.86,.52-.2,.23-.3,.51-.3,.83,0,.39,.1,.73,.29,1,.19,.28,.5,.54,.92,.8,.42,.25,.97,.55,1.64,.88,.61,.29,1.17,.59,1.69,.9s.97,.65,1.36,1.02,.7,.79,.91,1.27c.22,.48,.33,1.02,.33,1.64,0,.94-.22,1.74-.66,2.41-.44,.67-1.07,1.18-1.9,1.53-.82,.35-1.8,.53-2.94,.53Z"></path>
    <path class="cls-1" d="M103.83,122.39v-2.52c.12,.04,.31,.08,.56,.13,.26,.04,.46,.06,.6,.06,.34,0,.71-.06,1.11-.18,.4-.12,.78-.4,1.13-.82,.35-.42,.62-1.08,.8-1.98l.15,.29h-1.39l-4.09-11.7h3.41l2.01,6.77,.95,3.59h-.44l.85-3.59,1.64-6.77h3.39l-3.76,12c-.45,1.4-1,2.46-1.64,3.18-.65,.72-1.35,1.2-2.1,1.45-.21,.08-.48,.15-.8,.2-.33,.05-.61,.07-.86,.07-.1,0-.27-.01-.49-.03-.22-.02-.44-.05-.65-.07-.21-.03-.33-.06-.37-.08Z"></path>
    <path class="cls-1" d="M116.16,117.37v-11.69h2.91l.05,1.31c.27-.22,.61-.45,1.02-.68s.87-.42,1.37-.57c.5-.15,1.01-.24,1.52-.24,1.22-.03,2.11,.3,2.69,.97,.57,.68,.86,1.86,.86,3.55v7.34h-3.21v-6.89c0-.91-.12-1.55-.36-1.91-.24-.36-.7-.53-1.4-.5-.21,0-.45,.04-.71,.11s-.53,.16-.8,.29c-.27,.13-.52,.29-.75,.48v8.42h-3.19Z"></path>
    <path class="cls-1" d="M128.86,111.65c0-1.15,.21-2.18,.63-3.11,.42-.92,1.06-1.66,1.92-2.2,.86-.54,1.95-.81,3.27-.81,.76,0,1.42,.06,1.98,.19s.93,.26,1.12,.39l-.4,2.45c-.26-.16-.58-.29-.97-.39-.39-.1-.87-.15-1.44-.15-.46,0-.9,.1-1.34,.32-.44,.21-.8,.56-1.09,1.04-.29,.48-.45,1.13-.47,1.94-.02,.88,.1,1.59,.35,2.15,.26,.56,.61,.97,1.05,1.23,.44,.26,.94,.39,1.49,.39s1.03-.06,1.48-.17,.81-.23,1.06-.36l.47,1.96c-.34,.34-.84,.59-1.52,.76-.68,.17-1.39,.26-2.14,.26-1.21,0-2.22-.26-3.02-.77-.81-.51-1.41-1.22-1.82-2.11-.41-.89-.61-1.89-.61-3.01Z"></path>
  </g>
  <g>
    <path class="cls-2" d="M135,56.6l-19.07-19.05v13.95l-18.93,13.97h18.93v10.18l19.07-19.05Z"></path>
    <path class="cls-3" d="M70,51.47l19.07,19.05v-13.8l18.79-13.98h-18.79v-10.32l-19.07,19.05Z"></path>
  </g>
</svg>
